<svg width="75" height="20" viewBox="0 0 75 20" fill="none" xmlns="http://www.w3.org/2000/svg">
<path d="M51 3.05176e-05H70C72.7614 3.05176e-05 75 2.23861 75 5.00003V15C75 17.7615 72.7614 20 70 20H51V3.05176e-05Z" fill="#5A0FC8"/>
<circle cx="63" cy="10.0001" r="5.5" fill="url(#paint0_linear)" stroke="white"/>
<rect x="61.0502" y="11.8712" width="6.85" height="1.15" transform="rotate(-45.3263 61.0502 11.8712)" fill="white"/>
<rect x="59.8572" y="9.00006" width="3" height="1.22153" transform="rotate(44.5671 59.8572 9.00006)" fill="white"/>
<path d="M0.5 5.00003C0.5 2.51475 2.51472 0.500031 5 0.500031H51.5V19.5H5C2.51472 19.5 0.5 17.4853 0.5 15V5.00003Z" fill="#5A0FC8" stroke="#5A0FC8"/>
<path d="M34.2871 14.1586L35.2404 11.7575H37.993L36.6867 8.11512L38.3205 4.00003L43 16.375H39.549L38.7494 14.1586H34.2871Z" fill="white"/>
<path d="M31.343 16.375L36.3525 4.00003L33.0314 4.00005L29.6046 11.997L27.1678 4.00006H24.615L21.9985 11.997L20.1534 8.35297L18.4835 13.4769L20.1789 16.375H23.4473L25.8117 9.20344L28.066 16.375H31.343Z" fill="white"/>
<path d="M13.1525 12.1269H15.1982C15.8178 12.1269 16.3696 12.058 16.8535 11.9202L17.3826 10.2969L18.8611 5.75989C18.7485 5.58203 18.6198 5.41387 18.4753 5.25543C17.7161 4.41849 16.6054 4.00003 15.1431 4.00003H10V16.375H13.1525V12.1269ZM15.8602 6.84701C16.1568 7.14426 16.305 7.54203 16.305 8.04036C16.305 8.54251 16.1746 8.94076 15.9138 9.23513C15.628 9.56221 15.1016 9.72574 14.3347 9.72574H13.1525V6.40112H14.3434C15.0581 6.40112 15.5637 6.54975 15.8602 6.84701Z" fill="white"/>
<defs>
<linearGradient id="paint0_linear" x1="63" y1="4.00006" x2="63" y2="16.0001" gradientUnits="userSpaceOnUse">
<stop stop-color="#57BF65"/>
<stop offset="1" stop-color="#459B82"/>
</linearGradient>
</defs>
</svg>
