<svg width="94" height="20" viewBox="0 0 94 20" fill="none" xmlns="http://www.w3.org/2000/svg">
<path d="M70.5 0.5H89C91.4853 0.5 93.5 2.51472 93.5 5V15C93.5 17.4853 91.4853 19.5 89 19.5H70.5V0.5Z" fill="#56BE67" stroke="#56BE67"/>
<circle cx="82" cy="10" r="5.5" fill="url(#paint0_linear)" stroke="white"/>
<rect x="80.0502" y="11.8712" width="6.85" height="1.15" transform="rotate(-45.3263 80.0502 11.8712)" fill="white"/>
<rect x="78.8572" y="9.00003" width="3" height="1.22153" transform="rotate(44.5671 78.8572 9.00003)" fill="white"/>
<path d="M0.5 5C0.5 2.51472 2.51472 0.5 5 0.5H70.5V19.5H5C2.51472 19.5 0.5 17.4853 0.5 15V5Z" fill="white" stroke="#56BE67"/>
<path d="M34.2872 14.1627L35.2405 11.7606H37.9931L36.6868 8.11675L38.3205 4L43 16.38H39.5491L38.7494 14.1627H34.2872Z" fill="#3D3D3D"/>
<path d="M31.3428 16.38L36.3523 4L33.0312 4.00002L29.6044 12.0002L27.1676 4.00004H24.6149L21.9984 12.0002L20.1532 8.35471L18.4834 13.4807L20.1788 16.38H23.4472L25.8115 9.20551L28.0658 16.38H31.3428Z" fill="#5A0FC8"/>
<path d="M13.1525 12.1301H15.1981C15.8178 12.1301 16.3696 12.0612 16.8535 11.9234L17.3825 10.2994L18.8611 5.76057C18.7484 5.58264 18.6198 5.41442 18.4752 5.25591C17.7161 4.41863 16.6054 4 15.1431 4H10V16.38H13.1525V12.1301ZM15.8602 6.84814C16.1567 7.1455 16.305 7.54343 16.305 8.04196C16.305 8.54431 16.1746 8.94273 15.9138 9.23722C15.628 9.56443 15.1016 9.72803 14.3347 9.72803H13.1525V6.40206H14.3434C15.0581 6.40206 15.5637 6.55075 15.8602 6.84814Z" fill="#3D3D3D"/>
<rect x="45.3199" y="7.714" width="0.96" height="4.952" rx="0.48" fill="#3D3D3D"/>
<rect x="43.4" y="9.6948" width="4.8" height="0.9904" rx="0.4952" fill="#3D3D3D"/>
<path d="M62.4877 10.1914C62.4877 9.2705 61.3688 8.39775 59.6532 7.85653C60.0491 6.05436 59.8732 4.62056 59.0979 4.16152C58.9192 4.05384 58.7103 4.00283 58.4821 4.00283V4.63473C58.6085 4.63473 58.7103 4.66023 58.7955 4.7084C59.1694 4.92942 59.3316 5.771 59.2051 6.85344C59.1749 7.11979 59.1254 7.40032 59.0649 7.68651C58.5261 7.5505 57.9377 7.44566 57.3192 7.37765C56.948 6.85344 56.5631 6.37739 56.1755 5.96085C57.0717 5.10227 57.913 4.63189 58.4848 4.63189V4C57.7288 4 56.7391 4.55539 55.7384 5.51881C54.7376 4.56105 53.7479 4.01133 52.9919 4.01133V4.64323C53.561 4.64323 54.405 5.11077 55.3012 5.96368C54.9163 6.38022 54.5314 6.85344 54.1658 7.37765C53.5445 7.44566 52.9561 7.5505 52.4173 7.68935C52.3541 7.40599 52.3073 7.13113 52.2743 6.8676C52.1451 5.78517 52.3046 4.94359 52.6757 4.71973C52.7582 4.66873 52.8654 4.64606 52.9919 4.64606V4.01417C52.7609 4.01417 52.552 4.06517 52.3705 4.17285C51.598 4.63189 51.4248 6.06286 51.8235 7.85936C50.1134 8.40341 49 9.27333 49 10.1914C49 11.1123 50.1189 11.9851 51.8345 12.5263C51.4386 14.3285 51.6145 15.7623 52.3898 16.2213C52.5685 16.329 52.7774 16.38 53.0084 16.38C53.7644 16.38 54.7541 15.8246 55.7548 14.8612C56.7556 15.8189 57.7453 16.3687 58.5013 16.3687C58.7323 16.3687 58.9412 16.3177 59.1226 16.21C59.8952 15.7509 60.0684 14.32 59.6697 12.5235C61.3743 11.9823 62.4877 11.1095 62.4877 10.1914ZM58.9082 8.30141C58.8065 8.66694 58.68 9.04381 58.5371 9.42068C58.4243 9.19399 58.3061 8.9673 58.1769 8.74061C58.0504 8.51393 57.9157 8.2929 57.781 8.07755C58.1714 8.13706 58.5481 8.21073 58.9082 8.30141ZM57.6491 11.3192C57.4346 11.7017 57.2147 12.0644 56.9865 12.4016C56.5769 12.4385 56.1617 12.4583 55.7438 12.4583C55.3287 12.4583 54.9136 12.4385 54.5067 12.4045C54.2785 12.0673 54.0558 11.7074 53.8414 11.3277C53.6324 10.9565 53.4427 10.5796 53.2695 10.1999C53.44 9.82021 53.6324 9.44051 53.8386 9.06931C54.0531 8.68677 54.273 8.32407 54.5012 7.98688C54.9108 7.95004 55.326 7.9302 55.7438 7.9302C56.159 7.9302 56.5741 7.95004 56.981 7.98404C57.2092 8.32124 57.4319 8.68111 57.6463 9.06081C57.8553 9.43201 58.045 9.80888 58.2182 10.1886C58.045 10.5683 57.8553 10.948 57.6491 11.3192ZM58.5371 10.9508C58.6855 11.3305 58.812 11.7102 58.9165 12.0786C58.5563 12.1693 58.1769 12.2458 57.7838 12.3053C57.9185 12.0871 58.0532 11.8632 58.1797 11.6337C58.3061 11.407 58.4243 11.1775 58.5371 10.9508ZM55.7493 13.9743C55.4937 13.7022 55.238 13.3991 54.9851 13.0675C55.2325 13.0789 55.4854 13.0874 55.7411 13.0874C55.9995 13.0874 56.2552 13.0817 56.5054 13.0675C56.258 13.3991 56.0023 13.7022 55.7493 13.9743ZM53.7039 12.3053C53.3135 12.2458 52.9369 12.1721 52.5767 12.0814C52.6785 11.7159 52.8049 11.339 52.9479 10.9622C53.0606 11.1888 53.1788 11.4155 53.308 11.6422C53.4372 11.8689 53.5692 12.0899 53.7039 12.3053ZM55.7356 6.40856C55.9913 6.68059 56.247 6.98378 56.4999 7.31531C56.2525 7.30398 55.9995 7.29548 55.7438 7.29548C55.4854 7.29548 55.2297 7.30114 54.9796 7.31531C55.227 6.98378 55.4827 6.68059 55.7356 6.40856ZM53.7012 8.07755C53.5665 8.29574 53.4318 8.51959 53.3053 8.74911C53.1788 8.9758 53.0606 9.20249 52.9479 9.42918C52.7994 9.04948 52.673 8.66977 52.5685 8.30141C52.9286 8.21356 53.308 8.13706 53.7012 8.07755ZM51.2131 11.6252C50.2399 11.1973 49.6103 10.6363 49.6103 10.1914C49.6103 9.74654 50.2399 9.18265 51.2131 8.75761C51.4496 8.65277 51.708 8.55926 51.9747 8.47142C52.1314 9.02681 52.3376 9.60486 52.5932 10.1971C52.3403 10.7865 52.1369 11.3617 51.9829 11.9142C51.7107 11.8264 51.4523 11.7301 51.2131 11.6252ZM52.6922 15.6744C52.3183 15.4534 52.1561 14.6118 52.2826 13.5294C52.3128 13.263 52.3623 12.9825 52.4228 12.6963C52.9616 12.8323 53.55 12.9372 54.1685 13.0052C54.5397 13.5294 54.9246 14.0054 55.3122 14.422C54.416 15.2806 53.5747 15.7509 53.0029 15.7509C52.8792 15.7481 52.7747 15.7226 52.6922 15.6744ZM59.2134 13.5152C59.3426 14.5977 59.1831 15.4392 58.812 15.6631C58.7295 15.7141 58.6223 15.7368 58.4958 15.7368C57.9267 15.7368 57.0827 15.2692 56.1865 14.4163C56.5714 13.9998 56.9563 13.5266 57.3219 13.0023C57.9432 12.9343 58.5316 12.8295 59.0704 12.6907C59.1336 12.9768 59.1831 13.2517 59.2134 13.5152ZM60.2718 11.6252C60.0354 11.7301 59.777 11.8236 59.5103 11.9114C59.3536 11.356 59.1474 10.778 58.8917 10.1857C59.1446 9.59636 59.3481 9.02114 59.502 8.46859C59.7742 8.55643 60.0326 8.65277 60.2746 8.75761C61.2478 9.18549 61.8774 9.74654 61.8774 10.1914C61.8746 10.6363 61.245 11.2002 60.2718 11.6252Z" fill="#61DAFB"/>
<path d="M55.7411 11.4864C56.435 11.4864 56.9975 10.9066 56.9975 10.1914C56.9975 9.47623 56.435 8.89646 55.7411 8.89646C55.0472 8.89646 54.4847 9.47623 54.4847 10.1914C54.4847 10.9066 55.0472 11.4864 55.7411 11.4864Z" fill="#61DAFB"/>
<defs>
<linearGradient id="paint0_linear" x1="82" y1="4.00003" x2="82" y2="16" gradientUnits="userSpaceOnUse">
<stop stop-color="#57BF65"/>
<stop offset="1" stop-color="#459B82"/>
</linearGradient>
</defs>
</svg>
