<svg width="116" height="20" viewBox="0 0 116 20" fill="none" xmlns="http://www.w3.org/2000/svg">
<path d="M51.5 0.5H111C113.485 0.5 115.5 2.51472 115.5 5V15C115.5 17.4853 113.485 19.5 111 19.5H51.5V0.5Z" fill="#DCEDDC" stroke="#49A07F"/>
<path d="M59.05 7H60.05V14H59.05V7ZM64.8357 8.65C65.509 8.65 66.0424 8.84667 66.4357 9.24C66.8357 9.62667 67.0357 10.1967 67.0357 10.95V14H66.0757V11.06C66.0757 10.5467 65.9524 10.16 65.7057 9.9C65.459 9.64 65.1057 9.51 64.6457 9.51C64.1257 9.51 63.7157 9.66333 63.4157 9.97C63.1157 10.27 62.9657 10.7033 62.9657 11.27V14H62.0057V8.7H62.9257V9.5C63.119 9.22667 63.379 9.01667 63.7057 8.87C64.039 8.72333 64.4157 8.65 64.8357 8.65ZM70.3323 14.06C69.899 14.06 69.4823 14.0033 69.0823 13.89C68.6823 13.77 68.369 13.62 68.1423 13.44L68.5423 12.68C68.7757 12.8467 69.059 12.98 69.3923 13.08C69.7257 13.18 70.0623 13.23 70.4023 13.23C71.2423 13.23 71.6623 12.99 71.6623 12.51C71.6623 12.35 71.6057 12.2233 71.4923 12.13C71.379 12.0367 71.2357 11.97 71.0623 11.93C70.8957 11.8833 70.6557 11.8333 70.3423 11.78C69.9157 11.7133 69.5657 11.6367 69.2923 11.55C69.0257 11.4633 68.7957 11.3167 68.6023 11.11C68.409 10.9033 68.3123 10.6133 68.3123 10.24C68.3123 9.76 68.5123 9.37667 68.9123 9.09C69.3123 8.79667 69.849 8.65 70.5223 8.65C70.8757 8.65 71.229 8.69333 71.5823 8.78C71.9357 8.86667 72.2257 8.98333 72.4523 9.13L72.0423 9.89C71.609 9.61 71.099 9.47 70.5123 9.47C70.1057 9.47 69.7957 9.53667 69.5823 9.67C69.369 9.80333 69.2623 9.98 69.2623 10.2C69.2623 10.3733 69.3223 10.51 69.4423 10.61C69.5623 10.71 69.709 10.7833 69.8823 10.83C70.0623 10.8767 70.3123 10.93 70.6323 10.99C71.059 11.0633 71.4023 11.1433 71.6623 11.23C71.929 11.31 72.1557 11.45 72.3423 11.65C72.529 11.85 72.6223 12.13 72.6223 12.49C72.6223 12.97 72.4157 13.3533 72.0023 13.64C71.5957 13.92 71.039 14.06 70.3323 14.06ZM76.8021 13.69C76.6621 13.81 76.4888 13.9033 76.2821 13.97C76.0754 14.03 75.8621 14.06 75.6421 14.06C75.1088 14.06 74.6954 13.9167 74.4021 13.63C74.1088 13.3433 73.9621 12.9333 73.9621 12.4V9.49H73.0621V8.7H73.9621V7.54H74.9221V8.7H76.4421V9.49H74.9221V12.36C74.9221 12.6467 74.9921 12.8667 75.1321 13.02C75.2788 13.1733 75.4854 13.25 75.7521 13.25C76.0454 13.25 76.2954 13.1667 76.5021 13L76.8021 13.69ZM79.8927 8.65C80.6261 8.65 81.1861 8.83 81.5727 9.19C81.9661 9.55 82.1627 10.0867 82.1627 10.8V14H81.2527V13.3C81.0927 13.5467 80.8627 13.7367 80.5627 13.87C80.2694 13.9967 79.9194 14.06 79.5127 14.06C78.9194 14.06 78.4427 13.9167 78.0827 13.63C77.7294 13.3433 77.5527 12.9667 77.5527 12.5C77.5527 12.0333 77.7227 11.66 78.0627 11.38C78.4027 11.0933 78.9427 10.95 79.6827 10.95H81.2027V10.76C81.2027 10.3467 81.0827 10.03 80.8427 9.81C80.6027 9.59 80.2494 9.48 79.7827 9.48C79.4694 9.48 79.1627 9.53333 78.8627 9.64C78.5627 9.74 78.3094 9.87667 78.1027 10.05L77.7027 9.33C77.9761 9.11 78.3027 8.94333 78.6827 8.83C79.0627 8.71 79.4661 8.65 79.8927 8.65ZM79.6727 13.32C80.0394 13.32 80.3561 13.24 80.6227 13.08C80.8894 12.9133 81.0827 12.68 81.2027 12.38V11.64H79.7227C78.9094 11.64 78.5027 11.9133 78.5027 12.46C78.5027 12.7267 78.6061 12.9367 78.8127 13.09C79.0194 13.2433 79.3061 13.32 79.6727 13.32ZM83.9393 6.58H84.8993V14H83.9393V6.58ZM86.7323 6.58H87.6923V14H86.7323V6.58ZM98.8408 8.65C99.5074 8.65 100.034 8.84333 100.421 9.23C100.814 9.61667 101.011 10.19 101.011 10.95V14H100.051V11.06C100.051 10.5467 99.9308 10.16 99.6908 9.9C99.4574 9.64 99.1208 9.51 98.6808 9.51C98.1941 9.51 97.8074 9.66333 97.5208 9.97C97.2341 10.27 97.0908 10.7033 97.0908 11.27V14H96.1308V11.06C96.1308 10.5467 96.0108 10.16 95.7708 9.9C95.5374 9.64 95.2008 9.51 94.7608 9.51C94.2741 9.51 93.8874 9.66333 93.6008 9.97C93.3141 10.27 93.1708 10.7033 93.1708 11.27V14H92.2108V8.7H93.1308V9.49C93.3241 9.21667 93.5774 9.01 93.8908 8.87C94.2041 8.72333 94.5608 8.65 94.9608 8.65C95.3741 8.65 95.7408 8.73333 96.0608 8.9C96.3808 9.06667 96.6274 9.31 96.8008 9.63C97.0008 9.32333 97.2774 9.08333 97.6308 8.91C97.9908 8.73667 98.3941 8.65 98.8408 8.65ZM107.596 11.38C107.596 11.4533 107.59 11.55 107.576 11.67H103.276C103.336 12.1367 103.54 12.5133 103.886 12.8C104.24 13.08 104.676 13.22 105.196 13.22C105.83 13.22 106.34 13.0067 106.726 12.58L107.256 13.2C107.016 13.48 106.716 13.6933 106.356 13.84C106.003 13.9867 105.606 14.06 105.166 14.06C104.606 14.06 104.11 13.9467 103.676 13.72C103.243 13.4867 102.906 13.1633 102.666 12.75C102.433 12.3367 102.316 11.87 102.316 11.35C102.316 10.8367 102.43 10.3733 102.656 9.96C102.89 9.54667 103.206 9.22667 103.606 9C104.013 8.76667 104.47 8.65 104.976 8.65C105.483 8.65 105.933 8.76667 106.326 9C106.726 9.22667 107.036 9.54667 107.256 9.96C107.483 10.3733 107.596 10.8467 107.596 11.38ZM104.976 9.46C104.516 9.46 104.13 9.6 103.816 9.88C103.51 10.16 103.33 10.5267 103.276 10.98H106.676C106.623 10.5333 106.44 10.17 106.126 9.89C105.82 9.60333 105.436 9.46 104.976 9.46Z" fill="#49A07F"/>
<path d="M0.5 5C0.5 2.51472 2.51472 0.5 5 0.5H51.5V19.5H5C2.51472 19.5 0.5 17.4853 0.5 15V5Z" fill="white" stroke="#56BE67"/>
<path d="M34.2871 14.166L35.2404 11.7632H37.993L36.6867 8.11812L38.3205 4L43 16.3841H39.549L38.7494 14.166H34.2871Z" fill="#3D3D3D"/>
<path d="M31.343 16.3841L36.3525 4.00002L33.0314 4.00004L29.6046 12.0029L27.1678 4.00005H24.615L21.9985 12.0029L20.1534 8.35617L18.4835 13.4838L20.1789 16.3841H23.4473L25.8117 9.20726L28.066 16.3841H31.343Z" fill="#5A0FC8"/>
<path d="M13.1525 12.1329H15.1982C15.8178 12.1329 16.3696 12.064 16.8535 11.9261L17.3826 10.3016L18.8611 5.76126C18.7485 5.58328 18.6198 5.41499 18.4753 5.25643C17.7161 4.41887 16.6054 4.00011 15.1431 4.00011H10V16.3842H13.1525V12.1329ZM15.8602 6.84919C16.1568 7.14665 16.305 7.54471 16.305 8.04341C16.305 8.54593 16.1746 8.94448 15.9139 9.23906C15.628 9.56638 15.1016 9.73004 14.3347 9.73004H13.1525V6.40297H14.3434C15.0581 6.40297 15.5637 6.55171 15.8602 6.84919Z" fill="#3D3D3D"/>
</svg>
