<svg width="512" height="512" viewBox="0 0 512 512" fill="none" xmlns="http://www.w3.org/2000/svg">
<path d="M0 256H512V482C512 498.569 498.569 512 482 512H30C13.4315 512 0 498.569 0 482V256Z" fill="#5A0FC8"/>
<path d="M100.126 419.033C94.5481 419.033 89.1421 418.241 83.9082 416.657C78.7432 415.073 74.6456 412.973 71.6155 410.356L76.264 399.922C79.2253 402.264 82.8408 404.192 87.1105 405.707C91.4491 407.153 95.7877 407.877 100.126 407.877C105.498 407.877 109.492 407.016 112.109 405.294C114.795 403.572 116.138 401.3 116.138 398.476C116.138 396.41 115.38 394.723 113.865 393.415C112.419 392.037 110.56 390.97 108.287 390.212C106.014 389.455 102.915 388.594 98.99 387.63C93.4807 386.321 89.0043 385.013 85.561 383.704C82.1865 382.396 79.2597 380.364 76.7805 377.61C74.3702 374.786 73.165 370.998 73.165 366.247C73.165 362.252 74.2324 358.637 76.3673 355.4C78.571 352.095 81.8422 349.478 86.1808 347.549C90.5883 345.621 95.9599 344.657 102.296 344.657C106.703 344.657 111.042 345.208 115.311 346.31C119.581 347.412 123.266 348.996 126.365 351.062L122.129 361.495C118.961 359.635 115.656 358.224 112.212 357.26C108.769 356.295 105.429 355.813 102.192 355.813C96.8896 355.813 92.9297 356.709 90.3128 358.499C87.7647 360.29 86.4907 362.666 86.4907 365.627C86.4907 367.693 87.2138 369.38 88.66 370.689C90.1751 371.997 92.0689 373.03 94.3415 373.788C96.6141 374.545 99.7131 375.406 103.639 376.37C109.01 377.61 113.418 378.918 116.861 380.295C120.304 381.604 123.231 383.636 125.641 386.39C128.121 389.145 129.36 392.864 129.36 397.547C129.36 401.541 128.258 405.156 126.055 408.393C123.92 411.63 120.649 414.212 116.241 416.141C111.834 418.069 106.462 419.033 100.126 419.033ZM172.737 362.218C179.692 362.218 185.27 364.25 189.471 368.313C193.672 372.376 195.772 378.402 195.772 386.39V418H182.86V388.043C182.86 383.222 181.724 379.607 179.451 377.196C177.178 374.717 173.942 373.478 169.741 373.478C164.989 373.478 161.236 374.924 158.481 377.816C155.726 380.64 154.349 384.737 154.349 390.109V418H141.437V341.351H154.349V369.242C156.484 366.97 159.101 365.248 162.2 364.077C165.368 362.838 168.88 362.218 172.737 362.218ZM212.153 362.838H225.065V418H212.153V362.838ZM218.661 353.747C216.319 353.747 214.356 353.024 212.773 351.578C211.189 350.063 210.397 348.204 210.397 346C210.397 343.796 211.189 341.971 212.773 340.525C214.356 339.01 216.319 338.252 218.661 338.252C221.002 338.252 222.965 338.975 224.549 340.422C226.133 341.799 226.925 343.555 226.925 345.69C226.925 347.963 226.133 349.891 224.549 351.475C223.034 352.99 221.071 353.747 218.661 353.747ZM293.87 390.729C293.87 391.624 293.801 392.898 293.663 394.551H250.38C251.138 398.614 253.1 401.851 256.268 404.261C259.505 406.603 263.499 407.773 268.251 407.773C274.311 407.773 279.304 405.776 283.23 401.782L290.151 409.736C287.672 412.697 284.538 414.935 280.75 416.45C276.963 417.966 272.693 418.723 267.941 418.723C261.881 418.723 256.544 417.518 251.93 415.108C247.316 412.697 243.735 409.357 241.186 405.087C238.707 400.749 237.468 395.859 237.468 390.419C237.468 385.047 238.673 380.227 241.083 375.957C243.562 371.618 246.971 368.244 251.31 365.833C255.648 363.423 260.538 362.218 265.978 362.218C271.35 362.218 276.136 363.423 280.337 365.833C284.607 368.175 287.913 371.515 290.254 375.854C292.664 380.123 293.87 385.082 293.87 390.729ZM265.978 372.548C261.846 372.548 258.334 373.788 255.442 376.267C252.618 378.677 250.897 381.914 250.277 385.977H281.577C281.026 381.983 279.339 378.746 276.515 376.267C273.692 373.788 270.179 372.548 265.978 372.548ZM306.273 341.351H319.185V418H306.273V341.351ZM390.159 341.351V418H377.763V410.872C375.628 413.489 372.977 415.452 369.809 416.76C366.71 418.069 363.266 418.723 359.479 418.723C354.176 418.723 349.39 417.552 345.12 415.211C340.919 412.869 337.614 409.564 335.203 405.294C332.793 400.955 331.588 395.997 331.588 390.419C331.588 384.841 332.793 379.917 335.203 375.647C337.614 371.377 340.919 368.072 345.12 365.73C349.39 363.389 354.176 362.218 359.479 362.218C363.129 362.218 366.469 362.838 369.499 364.077C372.529 365.317 375.111 367.176 377.246 369.656V341.351H390.159ZM361.028 407.67C364.127 407.67 366.916 406.981 369.396 405.604C371.875 404.158 373.837 402.126 375.284 399.509C376.73 396.892 377.453 393.862 377.453 390.419C377.453 386.976 376.73 383.945 375.284 381.328C373.837 378.712 371.875 376.714 369.396 375.337C366.916 373.891 364.127 373.168 361.028 373.168C357.929 373.168 355.14 373.891 352.661 375.337C350.182 376.714 348.219 378.712 346.773 381.328C345.327 383.945 344.604 386.976 344.604 390.419C344.604 393.862 345.327 396.892 346.773 399.509C348.219 402.126 350.182 404.158 352.661 405.604C355.14 406.981 357.929 407.67 361.028 407.67ZM424.095 418.723C419.619 418.723 415.246 418.138 410.976 416.967C406.706 415.796 403.298 414.316 400.75 412.525L405.708 402.712C408.187 404.364 411.148 405.707 414.592 406.74C418.104 407.704 421.547 408.186 424.922 408.186C432.635 408.186 436.491 406.155 436.491 402.092C436.491 400.164 435.493 398.821 433.496 398.063C431.567 397.306 428.434 396.582 424.095 395.894C419.55 395.205 415.831 394.413 412.939 393.518C410.115 392.623 407.636 391.073 405.501 388.869C403.435 386.597 402.402 383.463 402.402 379.469C402.402 374.235 404.572 370.069 408.91 366.97C413.318 363.802 419.24 362.218 426.678 362.218C430.465 362.218 434.253 362.666 438.041 363.561C441.828 364.387 444.927 365.524 447.338 366.97L442.379 376.783C437.696 374.029 432.428 372.651 426.575 372.651C422.787 372.651 419.894 373.237 417.897 374.407C415.969 375.509 415.005 376.99 415.005 378.849C415.005 380.915 416.038 382.396 418.104 383.291C420.239 384.118 423.51 384.91 427.917 385.667C432.325 386.356 435.94 387.148 438.764 388.043C441.587 388.938 443.998 390.453 445.995 392.588C448.061 394.723 449.094 397.753 449.094 401.679C449.094 406.844 446.856 410.976 442.379 414.075C437.903 417.174 431.808 418.723 424.095 418.723Z" fill="white"/>
<path d="M0 30C0 13.4315 13.4315 0 30 0H482C498.569 0 512 13.4315 512 30V256H0V30Z" fill="white"/>
<path d="M349.748 174.584L360.493 147.501H391.518L376.794 106.417L395.209 60L447.953 199.585H409.056L400.043 174.584H349.748Z" fill="#3D3D3D"/>
<path d="M316.563 199.585L373.027 60.0001L335.594 60.0003L296.969 150.203L269.503 60.0005H240.73L211.239 150.203L190.441 109.1L171.62 166.895L190.729 199.585H227.568L254.218 118.692L279.627 199.585H316.563Z" fill="#5A0FC8"/>
<path d="M111.533 151.668H134.59C141.574 151.668 147.794 150.891 153.248 149.337L159.211 131.026L175.876 79.8505C174.606 77.8444 173.157 75.9476 171.527 74.1604C162.971 64.7201 150.451 60 133.969 60H76V199.585H111.533V151.668ZM142.053 92.1129C145.395 95.4657 147.066 99.9523 147.066 105.573C147.066 111.237 145.596 115.73 142.657 119.05C139.435 122.739 133.501 124.584 124.858 124.584H111.533V87.0834H124.956C133.012 87.0834 138.71 88.7599 142.053 92.1129Z" fill="#3D3D3D"/>
</svg>
