<svg width="215" height="40" viewBox="0 0 215 40" fill="none" xmlns="http://www.w3.org/2000/svg">
<path d="M107 0H210C212.761 0 215 2.23858 215 5V35C215 37.7614 212.761 40 210 40H107V0Z" fill="#5A0FC8"/>
<path d="M125.842 28.22C124.654 28.22 123.503 28.0513 122.388 27.714C121.288 27.3767 120.415 26.9293 119.77 26.372L120.76 24.15C121.391 24.6487 122.161 25.0593 123.07 25.382C123.994 25.69 124.918 25.844 125.842 25.844C126.986 25.844 127.837 25.6607 128.394 25.294C128.966 24.9273 129.252 24.4433 129.252 23.842C129.252 23.402 129.091 23.0427 128.768 22.764C128.46 22.4707 128.064 22.2433 127.58 22.082C127.096 21.9207 126.436 21.7373 125.6 21.532C124.427 21.2533 123.473 20.9747 122.74 20.696C122.021 20.4173 121.398 19.9847 120.87 19.398C120.357 18.7967 120.1 17.99 120.1 16.978C120.1 16.1273 120.327 15.3573 120.782 14.668C121.251 13.964 121.948 13.4067 122.872 12.996C123.811 12.5853 124.955 12.38 126.304 12.38C127.243 12.38 128.167 12.4973 129.076 12.732C129.985 12.9667 130.77 13.304 131.43 13.744L130.528 15.966C129.853 15.57 129.149 15.2693 128.416 15.064C127.683 14.8587 126.971 14.756 126.282 14.756C125.153 14.756 124.309 14.9467 123.752 15.328C123.209 15.7093 122.938 16.2153 122.938 16.846C122.938 17.286 123.092 17.6453 123.4 17.924C123.723 18.2027 124.126 18.4227 124.61 18.584C125.094 18.7453 125.754 18.9287 126.59 19.134C127.734 19.398 128.673 19.6767 129.406 19.97C130.139 20.2487 130.763 20.6813 131.276 21.268C131.804 21.8547 132.068 22.6467 132.068 23.644C132.068 24.4947 131.833 25.2647 131.364 25.954C130.909 26.6433 130.213 27.1933 129.274 27.604C128.335 28.0147 127.191 28.22 125.842 28.22ZM141.306 16.12C142.787 16.12 143.975 16.5527 144.87 17.418C145.765 18.2833 146.212 19.5667 146.212 21.268V28H143.462V21.62C143.462 20.5933 143.22 19.8233 142.736 19.31C142.252 18.782 141.563 18.518 140.668 18.518C139.656 18.518 138.857 18.826 138.27 19.442C137.683 20.0433 137.39 20.916 137.39 22.06V28H134.64V11.676H137.39V17.616C137.845 17.132 138.402 16.7653 139.062 16.516C139.737 16.252 140.485 16.12 141.306 16.12ZM149.7 16.252H152.45V28H149.7V16.252ZM151.086 14.316C150.588 14.316 150.17 14.162 149.832 13.854C149.495 13.5313 149.326 13.1353 149.326 12.666C149.326 12.1967 149.495 11.808 149.832 11.5C150.17 11.1773 150.588 11.016 151.086 11.016C151.585 11.016 152.003 11.17 152.34 11.478C152.678 11.7713 152.846 12.1453 152.846 12.6C152.846 13.084 152.678 13.4947 152.34 13.832C152.018 14.1547 151.6 14.316 151.086 14.316ZM167.104 22.192C167.104 22.3827 167.089 22.654 167.06 23.006H157.842C158.003 23.8713 158.421 24.5607 159.096 25.074C159.785 25.5727 160.636 25.822 161.648 25.822C162.939 25.822 164.002 25.3967 164.838 24.546L166.312 26.24C165.784 26.8707 165.117 27.3473 164.31 27.67C163.503 27.9927 162.594 28.154 161.582 28.154C160.291 28.154 159.155 27.8973 158.172 27.384C157.189 26.8707 156.427 26.1593 155.884 25.25C155.356 24.326 155.092 23.2847 155.092 22.126C155.092 20.982 155.349 19.9553 155.862 19.046C156.39 18.122 157.116 17.4033 158.04 16.89C158.964 16.3767 160.005 16.12 161.164 16.12C162.308 16.12 163.327 16.3767 164.222 16.89C165.131 17.3887 165.835 18.1 166.334 19.024C166.847 19.9333 167.104 20.9893 167.104 22.192ZM161.164 18.32C160.284 18.32 159.536 18.584 158.92 19.112C158.319 19.6253 157.952 20.3147 157.82 21.18H164.486C164.369 20.3293 164.009 19.64 163.408 19.112C162.807 18.584 162.059 18.32 161.164 18.32ZM169.745 11.676H172.495V28H169.745V11.676ZM187.611 11.676V28H184.971V26.482C184.516 27.0393 183.951 27.4573 183.277 27.736C182.617 28.0147 181.883 28.154 181.077 28.154C179.947 28.154 178.928 27.9047 178.019 27.406C177.124 26.9073 176.42 26.2033 175.907 25.294C175.393 24.37 175.137 23.314 175.137 22.126C175.137 20.938 175.393 19.8893 175.907 18.98C176.42 18.0707 177.124 17.3667 178.019 16.868C178.928 16.3693 179.947 16.12 181.077 16.12C181.854 16.12 182.565 16.252 183.211 16.516C183.856 16.78 184.406 17.176 184.861 17.704V11.676H187.611ZM181.407 25.8C182.067 25.8 182.661 25.6533 183.189 25.36C183.717 25.052 184.135 24.6193 184.443 24.062C184.751 23.5047 184.905 22.8593 184.905 22.126C184.905 21.3927 184.751 20.7473 184.443 20.19C184.135 19.6327 183.717 19.2073 183.189 18.914C182.661 18.606 182.067 18.452 181.407 18.452C180.747 18.452 180.153 18.606 179.625 18.914C179.097 19.2073 178.679 19.6327 178.371 20.19C178.063 20.7473 177.909 21.3927 177.909 22.126C177.909 22.8593 178.063 23.5047 178.371 24.062C178.679 24.6193 179.097 25.052 179.625 25.36C180.153 25.6533 180.747 25.8 181.407 25.8ZM194.838 28.154C193.885 28.154 192.954 28.0293 192.044 27.78C191.135 27.5307 190.409 27.2153 189.866 26.834L190.922 24.744C191.45 25.096 192.081 25.382 192.814 25.602C193.562 25.8073 194.296 25.91 195.014 25.91C196.657 25.91 197.478 25.4773 197.478 24.612C197.478 24.2013 197.266 23.9153 196.84 23.754C196.43 23.5927 195.762 23.4387 194.838 23.292C193.87 23.1453 193.078 22.9767 192.462 22.786C191.861 22.5953 191.333 22.2653 190.878 21.796C190.438 21.312 190.218 20.6447 190.218 19.794C190.218 18.6793 190.68 17.792 191.604 17.132C192.543 16.4573 193.804 16.12 195.388 16.12C196.195 16.12 197.002 16.2153 197.808 16.406C198.615 16.582 199.275 16.824 199.788 17.132L198.732 19.222C197.735 18.6353 196.613 18.342 195.366 18.342C194.56 18.342 193.944 18.4667 193.518 18.716C193.108 18.9507 192.902 19.266 192.902 19.662C192.902 20.102 193.122 20.4173 193.562 20.608C194.017 20.784 194.714 20.9527 195.652 21.114C196.591 21.2607 197.361 21.4293 197.962 21.62C198.564 21.8107 199.077 22.1333 199.502 22.588C199.942 23.0427 200.162 23.688 200.162 24.524C200.162 25.624 199.686 26.504 198.732 27.164C197.779 27.824 196.481 28.154 194.838 28.154Z" fill="white"/>
<path d="M0.5 5C0.5 2.51472 2.51472 0.5 5 0.5H106.5V39.5H5C2.51472 39.5 0.5 37.4853 0.5 35V5Z" fill="white" stroke="#5A0FC8"/>
<path d="M68.5742 28.3321L70.4808 23.5263H75.986L73.3734 16.2362L76.641 8L86 32.7681H79.098L77.4988 28.3321H68.5742Z" fill="#3D3D3D"/>
<path d="M62.6859 32.7682L72.7049 8.00004L66.0627 8.00007L59.2091 24.0058L54.3355 8.0001H49.2299L43.997 24.0058L40.3066 16.7123L36.9669 26.9677L40.3577 32.7682H46.8945L51.6233 18.4145L56.1319 32.7682H62.6859Z" fill="#5A0FC8"/>
<path d="M26.305 24.2658H30.3963C31.6356 24.2658 32.7392 24.1279 33.707 23.8521L34.7651 20.6031L37.7222 11.5224C37.4969 11.1664 37.2397 10.8299 36.9505 10.5128C35.4322 8.83764 33.2108 8.00011 30.2862 8.00011H20V32.7682H26.305V24.2658ZM31.7205 13.6983C32.3135 14.2932 32.61 15.0893 32.61 16.0867C32.61 17.0917 32.3492 17.8888 31.8277 18.478C31.2559 19.1327 30.2032 19.46 28.6694 19.46H26.305V12.8058H28.6868C30.1162 12.8058 31.1275 13.1033 31.7205 13.6983Z" fill="#3D3D3D"/>
</svg>
