<svg width="108" height="20" viewBox="0 0 108 20" fill="none" xmlns="http://www.w3.org/2000/svg">
<path d="M0.5 5C0.5 2.51472 2.51472 0.5 5 0.5H51.5V19.5H5C2.51472 19.5 0.5 17.4853 0.5 15V5Z" fill="white" stroke="#3D3D3D"/>
<path d="M33.2871 14.166L34.2404 11.7632H36.993L35.6867 8.11812L37.3205 4L42 16.3841H38.549L37.7494 14.166H33.2871Z" fill="#3D3D3D"/>
<path d="M30.343 16.3841L35.3525 4.00002L32.0314 4.00003L28.6046 12.0029L26.1678 4.00005H23.615L20.9985 12.0029L19.1534 8.35616L17.4835 13.4838L19.1789 16.3841H22.4473L24.8117 9.20725L27.066 16.3841H30.343Z" fill="#5A0FC8"/>
<path d="M12.1525 12.1329H14.1982C14.8178 12.1329 15.3696 12.064 15.8535 11.9261L16.3826 10.3016L17.8611 5.76126C17.7485 5.58328 17.6198 5.41499 17.4753 5.25643C16.7161 4.41887 15.6054 4.00011 14.1431 4.00011H9V16.3842H12.1525V12.1329ZM14.8602 6.84919C15.1568 7.14665 15.305 7.54471 15.305 8.04341C15.305 8.54593 15.1746 8.94448 14.9139 9.23906C14.628 9.56638 14.1016 9.73004 13.3347 9.73004H12.1525V6.40297H13.3434C14.0581 6.40297 14.5637 6.55171 14.8602 6.84919Z" fill="#3D3D3D"/>
<path d="M51.5 0.5H103C105.485 0.5 107.5 2.51472 107.5 5V15C107.5 17.4853 105.485 19.5 103 19.5H51.5V0.5Z" fill="#D1CBCB" stroke="#3D3D3D"/>
<path d="M63.2656 11.293C63.1602 12.1953 62.8262 12.8926 62.2637 13.3848C61.7051 13.873 60.9609 14.1172 60.0312 14.1172C59.0234 14.1172 58.2148 13.7559 57.6055 13.0332C57 12.3105 56.6973 11.3438 56.6973 10.1328V9.3125C56.6973 8.51953 56.8379 7.82227 57.1191 7.2207C57.4043 6.61914 57.8066 6.1582 58.3262 5.83789C58.8457 5.51367 59.4473 5.35156 60.1309 5.35156C61.0371 5.35156 61.7637 5.60547 62.3105 6.11328C62.8574 6.61719 63.1758 7.31641 63.2656 8.21094H62.1348C62.0371 7.53125 61.8242 7.03906 61.4961 6.73438C61.1719 6.42969 60.7168 6.27734 60.1309 6.27734C59.4121 6.27734 58.8477 6.54297 58.4375 7.07422C58.0312 7.60547 57.8281 8.36133 57.8281 9.3418V10.168C57.8281 11.0938 58.0215 11.8301 58.4082 12.377C58.7949 12.9238 59.3359 13.1973 60.0312 13.1973C60.6562 13.1973 61.1348 13.0566 61.4668 12.7754C61.8027 12.4902 62.0254 11.9961 62.1348 11.293H63.2656ZM67.2676 14.1172C66.4082 14.1172 65.709 13.8359 65.1699 13.2734C64.6309 12.707 64.3613 11.9512 64.3613 11.0059V10.8066C64.3613 10.1777 64.4805 9.61719 64.7188 9.125C64.9609 8.62891 65.2969 8.24219 65.7266 7.96484C66.1602 7.68359 66.6289 7.54297 67.1328 7.54297C67.957 7.54297 68.5977 7.81445 69.0547 8.35742C69.5117 8.90039 69.7402 9.67773 69.7402 10.6895V11.1406H65.4453C65.4609 11.7656 65.6426 12.2715 65.9902 12.6582C66.3418 13.041 66.7871 13.2324 67.3262 13.2324C67.709 13.2324 68.0332 13.1543 68.2988 12.998C68.5645 12.8418 68.7969 12.6348 68.9961 12.377L69.6582 12.8926C69.127 13.709 68.3301 14.1172 67.2676 14.1172ZM67.1328 8.43359C66.6953 8.43359 66.3281 8.59375 66.0312 8.91406C65.7344 9.23047 65.5508 9.67578 65.4805 10.25H68.6562V10.168C68.625 9.61719 68.4766 9.19141 68.2109 8.89062C67.9453 8.58594 67.5859 8.43359 67.1328 8.43359ZM74.0645 8.63281C73.9004 8.60547 73.7227 8.5918 73.5312 8.5918C72.8203 8.5918 72.3379 8.89453 72.084 9.5V14H71V7.66016H72.0547L72.0723 8.39258C72.4277 7.82617 72.9316 7.54297 73.584 7.54297C73.7949 7.54297 73.9551 7.57031 74.0645 7.625V8.63281ZM76.8301 6.125V7.66016H78.0137V8.49805H76.8301V12.4297C76.8301 12.6836 76.8828 12.875 76.9883 13.0039C77.0938 13.1289 77.2734 13.1914 77.5273 13.1914C77.6523 13.1914 77.8242 13.168 78.043 13.1211V14C77.7578 14.0781 77.4805 14.1172 77.2109 14.1172C76.7266 14.1172 76.3613 13.9707 76.1152 13.6777C75.8691 13.3848 75.7461 12.9688 75.7461 12.4297V8.49805H74.5918V7.66016H75.7461V6.125H76.8301ZM80.4629 14H79.3789V7.66016H80.4629V14ZM79.291 5.97852C79.291 5.80273 79.3438 5.6543 79.4492 5.5332C79.5586 5.41211 79.7188 5.35156 79.9297 5.35156C80.1406 5.35156 80.3008 5.41211 80.4102 5.5332C80.5195 5.6543 80.5742 5.80273 80.5742 5.97852C80.5742 6.1543 80.5195 6.30078 80.4102 6.41797C80.3008 6.53516 80.1406 6.59375 79.9297 6.59375C79.7188 6.59375 79.5586 6.53516 79.4492 6.41797C79.3438 6.30078 79.291 6.1543 79.291 5.97852ZM82.5664 14V8.49805H81.5645V7.66016H82.5664V7.12109C82.5664 6.41406 82.7676 5.86328 83.1699 5.46875C83.5762 5.07422 84.1484 4.87695 84.8867 4.87695C85.3242 4.87695 85.877 4.99609 86.5449 5.23438L86.3633 6.14844C85.875 5.95312 85.4102 5.85547 84.9688 5.85547C84.5039 5.85547 84.168 5.96094 83.9609 6.17188C83.7578 6.37891 83.6562 6.69141 83.6562 7.10938V7.66016H84.9512V8.49805H83.6562V14H82.5664ZM87.084 14H85.9941V7.66016H87.084V14ZM91.4785 14.1172C90.6191 14.1172 89.9199 13.8359 89.3809 13.2734C88.8418 12.707 88.5723 11.9512 88.5723 11.0059V10.8066C88.5723 10.1777 88.6914 9.61719 88.9297 9.125C89.1719 8.62891 89.5078 8.24219 89.9375 7.96484C90.3711 7.68359 90.8398 7.54297 91.3438 7.54297C92.168 7.54297 92.8086 7.81445 93.2656 8.35742C93.7227 8.90039 93.9512 9.67773 93.9512 10.6895V11.1406H89.6562C89.6719 11.7656 89.8535 12.2715 90.2012 12.6582C90.5527 13.041 90.998 13.2324 91.5371 13.2324C91.9199 13.2324 92.2441 13.1543 92.5098 12.998C92.7754 12.8418 93.0078 12.6348 93.207 12.377L93.8691 12.8926C93.3379 13.709 92.541 14.1172 91.4785 14.1172ZM91.3438 8.43359C90.9062 8.43359 90.5391 8.59375 90.2422 8.91406C89.9453 9.23047 89.7617 9.67578 89.6914 10.25H92.8672V10.168C92.8359 9.61719 92.6875 9.19141 92.4219 8.89062C92.1562 8.58594 91.7969 8.43359 91.3438 8.43359ZM94.9473 10.7773C94.9473 9.80469 95.1777 9.02344 95.6387 8.43359C96.0996 7.83984 96.7031 7.54297 97.4492 7.54297C98.1914 7.54297 98.7793 7.79688 99.2129 8.30469V5H100.297V14H99.3008L99.248 13.3203C98.8145 13.8516 98.2109 14.1172 97.4375 14.1172C96.7031 14.1172 96.1035 13.8164 95.6387 13.2148C95.1777 12.6133 94.9473 11.8281 94.9473 10.8594V10.7773ZM96.0312 10.9004C96.0312 11.6191 96.1797 12.1816 96.4766 12.5879C96.7734 12.9941 97.1836 13.1973 97.707 13.1973C98.3945 13.1973 98.8965 12.8887 99.2129 12.2715V9.35938C98.8887 8.76172 98.3906 8.46289 97.7188 8.46289C97.1875 8.46289 96.7734 8.66797 96.4766 9.07812C96.1797 9.48828 96.0312 10.0957 96.0312 10.9004Z" fill="#3D3D3D"/>
</svg>
