<svg width="75" height="20" viewBox="0 0 75 20" fill="none" xmlns="http://www.w3.org/2000/svg">
<path d="M51 0H70C72.7614 0 75 2.23858 75 5V15C75 17.7614 72.7614 20 70 20H51V0Z" fill="black"/>
<circle cx="62" cy="10" r="5.5" fill="url(#paint0_linear)" stroke="white"/>
<rect x="60.0502" y="11.8712" width="6.85" height="1.15" transform="rotate(-45.3263 60.0502 11.8712)" fill="white"/>
<rect x="58.8572" y="9.00003" width="3" height="1.22153" transform="rotate(44.5671 58.8572 9.00003)" fill="white"/>
<path d="M5 0.5H51.5V19.5H5C2.51472 19.5 0.5 17.4853 0.5 15V5C0.5 2.51472 2.51472 0.5 5 0.5Z" fill="black" stroke="black"/>
<path d="M34.2872 14.1586L35.2405 11.7574H37.9931L36.6868 8.11508L38.3205 4L43 16.375H39.5491L38.7494 14.1586H34.2872Z" fill="#5A0FC8"/>
<path d="M31.3429 16.375L36.3525 4.00001L33.0313 4.00002L29.6045 11.997L27.1677 4.00004H24.615L21.9985 11.997L20.1533 8.35295L18.4835 13.4769L20.1788 16.375H23.4472L25.8116 9.20341L28.0659 16.375H31.3429Z" fill="#5A0FC8"/>
<path d="M13.1525 12.1268H15.1982C15.8178 12.1268 16.3696 12.058 16.8535 11.9202L17.3826 10.2969L18.8611 5.75986C18.7485 5.582 18.6198 5.41384 18.4753 5.2554C17.7161 4.41846 16.6054 4 15.1431 4H10V16.375H13.1525V12.1268ZM15.8602 6.84698C16.1568 7.14423 16.305 7.542 16.305 8.04033C16.305 8.54248 16.1746 8.94073 15.9138 9.2351C15.628 9.56218 15.1016 9.72571 14.3347 9.72571H13.1525V6.40109H14.3434C15.0581 6.40109 15.5637 6.54972 15.8602 6.84698Z" fill="#5A0FC8"/>
<defs>
<linearGradient id="paint0_linear" x1="62" y1="4.00003" x2="62" y2="16" gradientUnits="userSpaceOnUse">
<stop stop-color="#3D3D3D"/>
<stop offset="1" stop-color="#459B82"/>
</linearGradient>
</defs>
</svg>
