<svg width="116" height="20" viewBox="0 0 116 20" fill="none" xmlns="http://www.w3.org/2000/svg">
<path d="M0.5 5C0.5 2.51472 2.51472 0.5 5 0.5H51.5V19.5H5C2.51472 19.5 0.5 17.4853 0.5 15V5Z" fill="white" stroke="#5A0FC8"/>
<path d="M33.2871 14.166L34.2404 11.7632H36.993L35.6867 8.11812L37.3205 4L42 16.3841H38.549L37.7494 14.166H33.2871Z" fill="#3D3D3D"/>
<path d="M30.343 16.3841L35.3525 4.00002L32.0314 4.00003L28.6046 12.0029L26.1678 4.00005H23.615L20.9985 12.0029L19.1534 8.35616L17.4835 13.4838L19.1789 16.3841H22.4473L24.8117 9.20725L27.066 16.3841H30.343Z" fill="#5A0FC8"/>
<path d="M12.1525 12.1329H14.1982C14.8178 12.1329 15.3696 12.064 15.8535 11.9261L16.3826 10.3016L17.8611 5.76126C17.7485 5.58328 17.6198 5.41499 17.4753 5.25643C16.7161 4.41887 15.6054 4.00011 14.1431 4.00011H9V16.3842H12.1525V12.1329ZM14.8602 6.84919C15.1568 7.14665 15.305 7.54471 15.305 8.04341C15.305 8.54593 15.1746 8.94448 14.9139 9.23906C14.628 9.56638 14.1016 9.73004 13.3347 9.73004H12.1525V6.40297H13.3434C14.0581 6.40297 14.5637 6.55171 14.8602 6.84919Z" fill="#3D3D3D"/>
<path d="M51.5 0.5H111C113.485 0.5 115.5 2.51472 115.5 5V15C115.5 17.4853 113.485 19.5 111 19.5H51.5V0.5Z" fill="#E3DFEA" stroke="#5A0FC8"/>
<path d="M58.1973 14H57.0723V5.46875H58.1973V14ZM61.1152 7.66016L61.1504 8.45703C61.6348 7.84766 62.2676 7.54297 63.0488 7.54297C64.3887 7.54297 65.0645 8.29883 65.0762 9.81055V14H63.9922V9.80469C63.9883 9.34766 63.8828 9.00977 63.6758 8.79102C63.4727 8.57227 63.1543 8.46289 62.7207 8.46289C62.3691 8.46289 62.0605 8.55664 61.7949 8.74414C61.5293 8.93164 61.3223 9.17773 61.1738 9.48242V14H60.0898V7.66016H61.1152ZM70.4023 12.3184C70.4023 12.0254 70.291 11.7988 70.0684 11.6387C69.8496 11.4746 69.4648 11.334 68.9141 11.2168C68.3672 11.0996 67.9316 10.959 67.6074 10.7949C67.2871 10.6309 67.0488 10.4355 66.8926 10.209C66.7402 9.98242 66.6641 9.71289 66.6641 9.40039C66.6641 8.88086 66.8828 8.44141 67.3203 8.08203C67.7617 7.72266 68.3242 7.54297 69.0078 7.54297C69.7266 7.54297 70.3086 7.72852 70.7539 8.09961C71.2031 8.4707 71.4277 8.94531 71.4277 9.52344H70.3379C70.3379 9.22656 70.2109 8.9707 69.957 8.75586C69.707 8.54102 69.3906 8.43359 69.0078 8.43359C68.6133 8.43359 68.3047 8.51953 68.082 8.69141C67.8594 8.86328 67.748 9.08789 67.748 9.36523C67.748 9.62695 67.8516 9.82422 68.0586 9.95703C68.2656 10.0898 68.6387 10.2168 69.1777 10.3379C69.7207 10.459 70.1602 10.6035 70.4961 10.7715C70.832 10.9395 71.0801 11.1426 71.2402 11.3809C71.4043 11.6152 71.4863 11.9023 71.4863 12.2422C71.4863 12.8086 71.2598 13.2637 70.8066 13.6074C70.3535 13.9473 69.7656 14.1172 69.043 14.1172C68.5352 14.1172 68.0859 14.0273 67.6953 13.8477C67.3047 13.668 66.998 13.418 66.7754 13.0977C66.5566 12.7734 66.4473 12.4238 66.4473 12.0488H67.5312C67.5508 12.4121 67.6953 12.7012 67.9648 12.916C68.2383 13.127 68.5977 13.2324 69.043 13.2324C69.4531 13.2324 69.7812 13.1504 70.0273 12.9863C70.2773 12.8184 70.4023 12.5957 70.4023 12.3184ZM74.3691 6.125V7.66016H75.5527V8.49805H74.3691V12.4297C74.3691 12.6836 74.4219 12.875 74.5273 13.0039C74.6328 13.1289 74.8125 13.1914 75.0664 13.1914C75.1914 13.1914 75.3633 13.168 75.582 13.1211V14C75.2969 14.0781 75.0195 14.1172 74.75 14.1172C74.2656 14.1172 73.9004 13.9707 73.6543 13.6777C73.4082 13.3848 73.2852 12.9688 73.2852 12.4297V8.49805H72.1309V7.66016H73.2852V6.125H74.3691ZM80.7383 14C80.6758 13.875 80.625 13.6523 80.5859 13.332C80.082 13.8555 79.4805 14.1172 78.7812 14.1172C78.1562 14.1172 77.6426 13.9414 77.2402 13.5898C76.8418 13.2344 76.6426 12.7852 76.6426 12.2422C76.6426 11.582 76.8926 11.0703 77.3926 10.707C77.8965 10.3398 78.6035 10.1562 79.5137 10.1562H80.5684V9.6582C80.5684 9.2793 80.4551 8.97852 80.2285 8.75586C80.002 8.5293 79.668 8.41602 79.2266 8.41602C78.8398 8.41602 78.5156 8.51367 78.2539 8.70898C77.9922 8.9043 77.8613 9.14062 77.8613 9.41797H76.7715C76.7715 9.10156 76.8828 8.79688 77.1055 8.50391C77.332 8.20703 77.6367 7.97266 78.0195 7.80078C78.4062 7.62891 78.8301 7.54297 79.291 7.54297C80.0215 7.54297 80.5938 7.72656 81.0078 8.09375C81.4219 8.45703 81.6367 8.95898 81.6523 9.59961V12.5176C81.6523 13.0996 81.7266 13.5625 81.875 13.9062V14H80.7383ZM78.9395 13.1738C79.2793 13.1738 79.6016 13.0859 79.9062 12.9102C80.2109 12.7344 80.4316 12.5059 80.5684 12.2246V10.9238H79.7188C78.3906 10.9238 77.7266 11.3125 77.7266 12.0898C77.7266 12.4297 77.8398 12.6953 78.0664 12.8867C78.293 13.0781 78.584 13.1738 78.9395 13.1738ZM84.5293 14H83.4453V5H84.5293V14ZM87.4473 14H86.3633V5H87.4473V14ZM93.1836 7.66016L93.2129 8.36328C93.6777 7.81641 94.3047 7.54297 95.0938 7.54297C95.9805 7.54297 96.584 7.88281 96.9043 8.5625C97.1152 8.25781 97.3887 8.01172 97.7246 7.82422C98.0645 7.63672 98.4648 7.54297 98.9258 7.54297C100.316 7.54297 101.023 8.2793 101.047 9.75195V14H99.9629V9.81641C99.9629 9.36328 99.8594 9.02539 99.6523 8.80273C99.4453 8.57617 99.0977 8.46289 98.6094 8.46289C98.207 8.46289 97.873 8.58398 97.6074 8.82617C97.3418 9.06445 97.1875 9.38672 97.1445 9.79297V14H96.0547V9.8457C96.0547 8.92383 95.6035 8.46289 94.7012 8.46289C93.9902 8.46289 93.5039 8.76562 93.2422 9.37109V14H92.1582V7.66016H93.1836ZM105.318 14.1172C104.459 14.1172 103.76 13.8359 103.221 13.2734C102.682 12.707 102.412 11.9512 102.412 11.0059V10.8066C102.412 10.1777 102.531 9.61719 102.77 9.125C103.012 8.62891 103.348 8.24219 103.777 7.96484C104.211 7.68359 104.68 7.54297 105.184 7.54297C106.008 7.54297 106.648 7.81445 107.105 8.35742C107.562 8.90039 107.791 9.67773 107.791 10.6895V11.1406H103.496C103.512 11.7656 103.693 12.2715 104.041 12.6582C104.393 13.041 104.838 13.2324 105.377 13.2324C105.76 13.2324 106.084 13.1543 106.35 12.998C106.615 12.8418 106.848 12.6348 107.047 12.377L107.709 12.8926C107.178 13.709 106.381 14.1172 105.318 14.1172ZM105.184 8.43359C104.746 8.43359 104.379 8.59375 104.082 8.91406C103.785 9.23047 103.602 9.67578 103.531 10.25H106.707V10.168C106.676 9.61719 106.527 9.19141 106.262 8.89062C105.996 8.58594 105.637 8.43359 105.184 8.43359Z" fill="#5A0FC8"/>
</svg>
