<svg width="128" height="128" viewBox="0 0 128 128" fill="none" xmlns="http://www.w3.org/2000/svg">
<path d="M0 64H128V118C128 123.523 123.523 128 118 128H10C4.47715 128 0 123.523 0 118V64Z" fill="#5A0FC8"/>
<path d="M25.675 102.15C24.375 102.15 23.125 101.942 21.925 101.525C20.7417 101.108 19.825 100.558 19.175 99.875L19.9 98.45C20.5333 99.0833 21.375 99.6 22.425 100C23.475 100.383 24.5583 100.575 25.675 100.575C27.2417 100.575 28.4167 100.292 29.2 99.725C29.9833 99.1417 30.375 98.3917 30.375 97.475C30.375 96.775 30.1583 96.2167 29.725 95.8C29.3083 95.3833 28.7917 95.0667 28.175 94.85C27.5583 94.6167 26.7 94.3667 25.6 94.1C24.2833 93.7667 23.2333 93.45 22.45 93.15C21.6667 92.8333 20.9917 92.3583 20.425 91.725C19.875 91.0917 19.6 90.2333 19.6 89.15C19.6 88.2667 19.8333 87.4667 20.3 86.75C20.7667 86.0167 21.4833 85.4333 22.45 85C23.4167 84.5667 24.6167 84.35 26.05 84.35C27.05 84.35 28.025 84.4917 28.975 84.775C29.9417 85.0417 30.775 85.4167 31.475 85.9L30.85 87.375C30.1167 86.8917 29.3333 86.5333 28.5 86.3C27.6667 86.05 26.85 85.925 26.05 85.925C24.5167 85.925 23.3583 86.225 22.575 86.825C21.8083 87.4083 21.425 88.1667 21.425 89.1C21.425 89.8 21.6333 90.3667 22.05 90.8C22.4833 91.2167 23.0167 91.5417 23.65 91.775C24.3 91.9917 25.1667 92.2333 26.25 92.5C27.5333 92.8167 28.5667 93.1333 29.35 93.45C30.15 93.75 30.825 94.2167 31.375 94.85C31.925 95.4667 32.2 96.3083 32.2 97.375C32.2 98.2583 31.9583 99.0667 31.475 99.8C31.0083 100.517 30.2833 101.092 29.3 101.525C28.3167 101.942 27.1083 102.15 25.675 102.15ZM42.5559 88.75C44.2059 88.75 45.5142 89.2333 46.4809 90.2C47.4642 91.15 47.9559 92.5417 47.9559 94.375V102H46.1809V94.55C46.1809 93.1833 45.8392 92.1417 45.1559 91.425C44.4725 90.7083 43.4975 90.35 42.2309 90.35C40.8142 90.35 39.6892 90.775 38.8559 91.625C38.0392 92.4583 37.6309 93.6167 37.6309 95.1V102H35.8559V83.45H37.6309V91.15C38.1142 90.3833 38.7809 89.7917 39.6309 89.375C40.4809 88.9583 41.4559 88.75 42.5559 88.75ZM52.7748 88.85H54.5498V102H52.7748V88.85ZM53.6748 85.975C53.3081 85.975 52.9998 85.85 52.7498 85.6C52.4998 85.35 52.3748 85.05 52.3748 84.7C52.3748 84.3667 52.4998 84.075 52.7498 83.825C52.9998 83.575 53.3081 83.45 53.6748 83.45C54.0415 83.45 54.3498 83.575 54.5998 83.825C54.8498 84.0583 54.9748 84.3417 54.9748 84.675C54.9748 85.0417 54.8498 85.35 54.5998 85.6C54.3498 85.85 54.0415 85.975 53.6748 85.975ZM70.9387 95.975H59.9387C60.0387 97.3417 60.5637 98.45 61.5137 99.3C62.4637 100.133 63.6637 100.55 65.1137 100.55C65.9303 100.55 66.6803 100.408 67.3637 100.125C68.047 99.825 68.6387 99.3917 69.1387 98.825L70.1387 99.975C69.5553 100.675 68.822 101.208 67.9387 101.575C67.072 101.942 66.1137 102.125 65.0637 102.125C63.7137 102.125 62.5137 101.842 61.4637 101.275C60.4303 100.692 59.622 99.8917 59.0387 98.875C58.4553 97.8583 58.1637 96.7083 58.1637 95.425C58.1637 94.1417 58.4387 92.9917 58.9887 91.975C59.5553 90.9583 60.322 90.1667 61.2887 89.6C62.272 89.0333 63.372 88.75 64.5887 88.75C65.8053 88.75 66.897 89.0333 67.8637 89.6C68.8303 90.1667 69.5887 90.9583 70.1387 91.975C70.6887 92.975 70.9637 94.125 70.9637 95.425L70.9387 95.975ZM64.5887 90.275C63.322 90.275 62.2553 90.6833 61.3887 91.5C60.5387 92.3 60.0553 93.35 59.9387 94.65H69.2637C69.147 93.35 68.6553 92.3 67.7887 91.5C66.9387 90.6833 65.872 90.275 64.5887 90.275ZM74.5766 83.45H76.3516V102H74.5766V83.45ZM93.2904 83.45V102H91.5904V99.4C91.0571 100.283 90.3488 100.958 89.4654 101.425C88.5988 101.892 87.6154 102.125 86.5154 102.125C85.2821 102.125 84.1654 101.842 83.1654 101.275C82.1654 100.708 81.3821 99.9167 80.8154 98.9C80.2488 97.8833 79.9654 96.725 79.9654 95.425C79.9654 94.125 80.2488 92.9667 80.8154 91.95C81.3821 90.9333 82.1654 90.15 83.1654 89.6C84.1654 89.0333 85.2821 88.75 86.5154 88.75C87.5821 88.75 88.5404 88.975 89.3904 89.425C90.2571 89.8583 90.9654 90.5 91.5154 91.35V83.45H93.2904ZM86.6654 100.55C87.5821 100.55 88.4071 100.342 89.1404 99.925C89.8904 99.4917 90.4738 98.8833 90.8904 98.1C91.3238 97.3167 91.5404 96.425 91.5404 95.425C91.5404 94.425 91.3238 93.5333 90.8904 92.75C90.4738 91.9667 89.8904 91.3667 89.1404 90.95C88.4071 90.5167 87.5821 90.3 86.6654 90.3C85.7321 90.3 84.8904 90.5167 84.1404 90.95C83.4071 91.3667 82.8238 91.9667 82.3904 92.75C81.9738 93.5333 81.7654 94.425 81.7654 95.425C81.7654 96.425 81.9738 97.3167 82.3904 98.1C82.8238 98.8833 83.4071 99.4917 84.1404 99.925C84.8904 100.342 85.7321 100.55 86.6654 100.55ZM101.759 102.125C100.692 102.125 99.6671 101.975 98.6838 101.675C97.7171 101.358 96.9588 100.967 96.4088 100.5L97.2088 99.1C97.7588 99.5333 98.4505 99.8917 99.2838 100.175C100.117 100.442 100.984 100.575 101.884 100.575C103.084 100.575 103.967 100.392 104.534 100.025C105.117 99.6417 105.409 99.1083 105.409 98.425C105.409 97.9417 105.25 97.5667 104.934 97.3C104.617 97.0167 104.217 96.8083 103.734 96.675C103.25 96.525 102.609 96.3833 101.809 96.25C100.742 96.05 99.8838 95.85 99.2338 95.65C98.5838 95.4333 98.0255 95.075 97.5588 94.575C97.1088 94.075 96.8838 93.3833 96.8838 92.5C96.8838 91.4 97.3421 90.5 98.2588 89.8C99.1755 89.1 100.45 88.75 102.084 88.75C102.934 88.75 103.784 88.8667 104.634 89.1C105.484 89.3167 106.184 89.6083 106.734 89.975L105.959 91.4C104.875 90.65 103.584 90.275 102.084 90.275C100.95 90.275 100.092 90.475 99.5088 90.875C98.9421 91.275 98.6588 91.8 98.6588 92.45C98.6588 92.95 98.8171 93.35 99.1338 93.65C99.4671 93.95 99.8755 94.175 100.359 94.325C100.842 94.4583 101.509 94.6 102.359 94.75C103.409 94.95 104.25 95.15 104.884 95.35C105.517 95.55 106.059 95.8917 106.509 96.375C106.959 96.8583 107.184 97.525 107.184 98.375C107.184 99.525 106.7 100.442 105.734 101.125C104.784 101.792 103.459 102.125 101.759 102.125Z" fill="white"/>
<path d="M10 1.5H118C122.694 1.5 126.5 5.30558 126.5 10V62.5H1.5V10C1.5 5.30558 5.30558 1.5 10 1.5Z" fill="white" stroke="#5A0FC8" stroke-width="3"/>
<path d="M86.4369 43.6461L89.1232 36.8752H96.8795L93.1985 26.6041L97.8022 15L110.988 49.8961H101.264L99.0108 43.6461H86.4369Z" fill="#3D3D3D"/>
<path d="M78.1408 49.8962L92.2568 15L82.8984 15.0001L73.2423 37.5508L66.3758 15.0001H59.1825L51.8098 37.5508L46.6103 27.2749L41.905 41.7238L46.6823 49.8962H55.8921L62.5545 29.6731L68.9068 49.8962H78.1408Z" fill="#5A0FC8"/>
<path d="M26.8832 37.9169H32.6475C34.3936 37.9169 35.9485 37.7227 37.312 37.3342L38.8027 32.7565L42.9691 19.9626C42.6516 19.4611 42.2892 18.9869 41.8818 18.5401C39.7426 16.18 36.6129 15 32.4924 15H18V49.8962H26.8832V37.9169ZM34.5131 23.0282C35.3487 23.8664 35.7664 24.9881 35.7664 26.3933C35.7664 27.8094 35.399 28.9324 34.6642 29.7625C33.8586 30.6848 32.3754 31.146 30.2144 31.146H26.8832V21.7709H30.2389C32.2529 21.7709 33.6776 22.19 34.5131 23.0282Z" fill="#3D3D3D"/>
</svg>
