<svg width="572" height="572" viewBox="0 0 572 572" fill="none" xmlns="http://www.w3.org/2000/svg">
<g filter="url(#filter0_d)">
<path d="M30 286H542V512C542 528.569 528.569 542 512 542H60C43.4315 542 30 528.569 30 512V286Z" fill="#5A0FC8"/>
<path d="M130.126 449.033C124.548 449.033 119.142 448.241 113.908 446.657C108.743 445.073 104.646 442.973 101.616 440.356L106.264 429.922C109.225 432.264 112.841 434.192 117.111 435.707C121.449 437.153 125.788 437.877 130.126 437.877C135.498 437.877 139.492 437.016 142.109 435.294C144.795 433.572 146.138 431.3 146.138 428.476C146.138 426.41 145.38 424.723 143.865 423.415C142.419 422.037 140.56 420.97 138.287 420.212C136.014 419.455 132.915 418.594 128.99 417.63C123.481 416.321 119.004 415.013 115.561 413.704C112.187 412.396 109.26 410.364 106.781 407.61C104.37 404.786 103.165 400.998 103.165 396.247C103.165 392.252 104.232 388.637 106.367 385.4C108.571 382.095 111.842 379.478 116.181 377.549C120.588 375.621 125.96 374.657 132.296 374.657C136.703 374.657 141.042 375.208 145.311 376.31C149.581 377.412 153.266 378.996 156.365 381.062L152.129 391.495C148.961 389.635 145.656 388.224 142.212 387.26C138.769 386.295 135.429 385.813 132.192 385.813C126.89 385.813 122.93 386.709 120.313 388.499C117.765 390.29 116.491 392.666 116.491 395.627C116.491 397.693 117.214 399.38 118.66 400.689C120.175 401.997 122.069 403.03 124.342 403.788C126.614 404.545 129.713 405.406 133.639 406.37C139.01 407.61 143.418 408.918 146.861 410.295C150.304 411.604 153.231 413.636 155.641 416.39C158.121 419.145 159.36 422.864 159.36 427.547C159.36 431.541 158.258 435.156 156.055 438.393C153.92 441.63 150.649 444.212 146.241 446.141C141.834 448.069 136.462 449.033 130.126 449.033ZM202.737 392.218C209.692 392.218 215.27 394.25 219.471 398.313C223.672 402.376 225.772 408.402 225.772 416.39V448H212.86V418.043C212.86 413.222 211.724 409.607 209.451 407.196C207.178 404.717 203.942 403.478 199.741 403.478C194.989 403.478 191.236 404.924 188.481 407.816C185.726 410.64 184.349 414.737 184.349 420.109V448H171.437V371.351H184.349V399.242C186.484 396.97 189.101 395.248 192.2 394.077C195.368 392.838 198.88 392.218 202.737 392.218ZM242.153 392.838H255.065V448H242.153V392.838ZM248.661 383.747C246.319 383.747 244.356 383.024 242.773 381.578C241.189 380.063 240.397 378.204 240.397 376C240.397 373.796 241.189 371.971 242.773 370.525C244.356 369.01 246.319 368.252 248.661 368.252C251.002 368.252 252.965 368.975 254.549 370.422C256.133 371.799 256.925 373.555 256.925 375.69C256.925 377.963 256.133 379.891 254.549 381.475C253.034 382.99 251.071 383.747 248.661 383.747ZM323.87 420.729C323.87 421.624 323.801 422.898 323.663 424.551H280.38C281.138 428.614 283.1 431.851 286.268 434.261C289.505 436.603 293.499 437.773 298.251 437.773C304.311 437.773 309.304 435.776 313.23 431.782L320.151 439.736C317.672 442.697 314.538 444.935 310.75 446.45C306.963 447.966 302.693 448.723 297.941 448.723C291.881 448.723 286.544 447.518 281.93 445.108C277.316 442.697 273.735 439.357 271.186 435.087C268.707 430.749 267.468 425.859 267.468 420.419C267.468 415.047 268.673 410.227 271.083 405.957C273.562 401.618 276.971 398.244 281.31 395.833C285.648 393.423 290.538 392.218 295.978 392.218C301.35 392.218 306.136 393.423 310.337 395.833C314.607 398.175 317.913 401.515 320.254 405.854C322.664 410.123 323.87 415.082 323.87 420.729ZM295.978 402.548C291.846 402.548 288.334 403.788 285.442 406.267C282.618 408.677 280.897 411.914 280.277 415.977H311.577C311.026 411.983 309.339 408.746 306.515 406.267C303.692 403.788 300.179 402.548 295.978 402.548ZM336.273 371.351H349.185V448H336.273V371.351ZM420.159 371.351V448H407.763V440.872C405.628 443.489 402.977 445.452 399.809 446.76C396.71 448.069 393.266 448.723 389.479 448.723C384.176 448.723 379.39 447.552 375.12 445.211C370.919 442.869 367.614 439.564 365.203 435.294C362.793 430.955 361.588 425.997 361.588 420.419C361.588 414.841 362.793 409.917 365.203 405.647C367.614 401.377 370.919 398.072 375.12 395.73C379.39 393.389 384.176 392.218 389.479 392.218C393.129 392.218 396.469 392.838 399.499 394.077C402.529 395.317 405.111 397.176 407.246 399.656V371.351H420.159ZM391.028 437.67C394.127 437.67 396.916 436.981 399.396 435.604C401.875 434.158 403.837 432.126 405.284 429.509C406.73 426.892 407.453 423.862 407.453 420.419C407.453 416.976 406.73 413.945 405.284 411.328C403.837 408.712 401.875 406.714 399.396 405.337C396.916 403.891 394.127 403.168 391.028 403.168C387.929 403.168 385.14 403.891 382.661 405.337C380.182 406.714 378.219 408.712 376.773 411.328C375.327 413.945 374.604 416.976 374.604 420.419C374.604 423.862 375.327 426.892 376.773 429.509C378.219 432.126 380.182 434.158 382.661 435.604C385.14 436.981 387.929 437.67 391.028 437.67ZM454.095 448.723C449.619 448.723 445.246 448.138 440.976 446.967C436.706 445.796 433.298 444.316 430.75 442.525L435.708 432.712C438.187 434.364 441.148 435.707 444.592 436.74C448.104 437.704 451.547 438.186 454.922 438.186C462.635 438.186 466.491 436.155 466.491 432.092C466.491 430.164 465.493 428.821 463.496 428.063C461.567 427.306 458.434 426.582 454.095 425.894C449.55 425.205 445.831 424.413 442.939 423.518C440.115 422.623 437.636 421.073 435.501 418.869C433.435 416.597 432.402 413.463 432.402 409.469C432.402 404.235 434.572 400.069 438.91 396.97C443.318 393.802 449.24 392.218 456.678 392.218C460.465 392.218 464.253 392.666 468.041 393.561C471.828 394.387 474.927 395.524 477.338 396.97L472.379 406.783C467.696 404.029 462.428 402.651 456.575 402.651C452.787 402.651 449.894 403.237 447.897 404.407C445.969 405.509 445.005 406.99 445.005 408.849C445.005 410.915 446.038 412.396 448.104 413.291C450.239 414.118 453.51 414.91 457.917 415.667C462.325 416.356 465.94 417.148 468.764 418.043C471.587 418.938 473.998 420.453 475.995 422.588C478.061 424.723 479.094 427.753 479.094 431.679C479.094 436.844 476.856 440.976 472.379 444.075C467.903 447.174 461.808 448.723 454.095 448.723Z" fill="white"/>
<path d="M30 60C30 43.4315 43.4315 30 60 30H512C528.569 30 542 43.4315 542 60V286H30V60Z" fill="white"/>
<path d="M379.748 204.584L390.493 177.501H421.518L406.794 136.417L425.209 90L477.953 229.585H439.056L430.043 204.584H379.748Z" fill="#3D3D3D"/>
<path d="M346.563 229.585L403.027 90.0001L365.594 90.0003L326.969 180.203L299.503 90.0005H270.73L241.239 180.203L220.441 139.1L201.62 196.895L220.729 229.585H257.568L284.218 148.692L309.627 229.585H346.563Z" fill="#5A0FC8"/>
<path d="M141.533 181.668H164.59C171.574 181.668 177.794 180.891 183.248 179.337L189.211 161.026L205.876 109.851C204.606 107.844 203.157 105.948 201.527 104.16C192.971 94.7201 180.451 90 163.969 90H106V229.585H141.533V181.668ZM172.053 122.113C175.395 125.466 177.066 129.952 177.066 135.573C177.066 141.237 175.596 145.73 172.657 149.05C169.435 152.739 163.501 154.584 154.858 154.584H141.533V117.083H154.956C163.012 117.083 168.71 118.76 172.053 122.113Z" fill="#3D3D3D"/>
</g>
<defs>
<filter id="filter0_d" x="0" y="0" width="572" height="572" filterUnits="userSpaceOnUse" color-interpolation-filters="sRGB">
<feFlood flood-opacity="0" result="BackgroundImageFix"/>
<feColorMatrix in="SourceAlpha" type="matrix" values="0 0 0 0 0 0 0 0 0 0 0 0 0 0 0 0 0 0 127 0"/>
<feOffset/>
<feGaussianBlur stdDeviation="15"/>
<feColorMatrix type="matrix" values="0 0 0 0 0 0 0 0 0 0 0 0 0 0 0 0 0 0 0.25 0"/>
<feBlend mode="normal" in2="BackgroundImageFix" result="effect1_dropShadow"/>
<feBlend mode="normal" in="SourceGraphic" in2="effect1_dropShadow" result="shape"/>
</filter>
</defs>
</svg>
