<svg width="75" height="20" viewBox="0 0 75 20" fill="none" xmlns="http://www.w3.org/2000/svg">
<path d="M51 -3.05176e-05H70C72.7614 -3.05176e-05 75 2.23855 75 4.99997V15C75 17.7614 72.7614 20 70 20H51V-3.05176e-05Z" fill="#3D3D3D"/>
<circle cx="63" cy="10" r="5.5" fill="url(#paint0_linear)" stroke="white"/>
<rect x="61.0502" y="11.8712" width="6.85" height="1.15" transform="rotate(-45.3263 61.0502 11.8712)" fill="white"/>
<rect x="59.8572" y="9" width="3" height="1.22153" transform="rotate(44.5671 59.8572 9)" fill="white"/>
<path d="M5 0.499969H51.5V19.5H5C2.51472 19.5 0.5 17.4853 0.5 15V4.99997C0.5 2.51469 2.51472 0.499969 5 0.499969Z" fill="white" stroke="#3D3D3D"/>
<path d="M33.2871 14.166L34.2404 11.7632H36.993L35.6867 8.11812L37.3205 4L42 16.3841H38.549L37.7494 14.166H33.2871Z" fill="#3D3D3D"/>
<path d="M30.343 16.3841L35.3525 4.00002L32.0314 4.00003L28.6046 12.0029L26.1678 4.00005H23.615L20.9985 12.0029L19.1534 8.35616L17.4835 13.4838L19.1789 16.3841H22.4473L24.8117 9.20725L27.066 16.3841H30.343Z" fill="#5A0FC8"/>
<path d="M12.1525 12.1329H14.1982C14.8178 12.1329 15.3696 12.064 15.8535 11.9261L16.3826 10.3016L17.8611 5.76126C17.7485 5.58328 17.6198 5.41499 17.4753 5.25643C16.7161 4.41887 15.6054 4.00011 14.1431 4.00011H9V16.3842H12.1525V12.1329ZM14.8602 6.84919C15.1568 7.14665 15.305 7.54471 15.305 8.04341C15.305 8.54593 15.1746 8.94448 14.9139 9.23906C14.628 9.56638 14.1016 9.73004 13.3347 9.73004H12.1525V6.40297H13.3434C14.0581 6.40297 14.5637 6.55171 14.8602 6.84919Z" fill="#3D3D3D"/>
<defs>
<linearGradient id="paint0_linear" x1="63" y1="4" x2="63" y2="16" gradientUnits="userSpaceOnUse">
<stop stop-color="#57BF65"/>
<stop offset="1" stop-color="#459B82"/>
</linearGradient>
</defs>
</svg>
