<svg width="75" height="20" viewBox="0 0 75 20" fill="none" xmlns="http://www.w3.org/2000/svg">
<path d="M51 0H70C72.7614 0 75 2.23858 75 5V15C75 17.7614 72.7614 20 70 20H51V0Z" fill="#5A0FC8"/>
<circle cx="63" cy="10" r="5.5" fill="url(#paint0_linear)" stroke="white"/>
<rect x="61.0502" y="11.8712" width="6.85" height="1.15" transform="rotate(-45.3263 61.0502 11.8712)" fill="white"/>
<rect x="59.8572" y="9.00003" width="3" height="1.22153" transform="rotate(44.5671 59.8572 9.00003)" fill="white"/>
<path d="M0.5 5C0.5 2.51472 2.51472 0.5 5 0.5H51.5V19.5H5C2.51472 19.5 0.5 17.4853 0.5 15V5Z" fill="white" stroke="#5A0FC8"/>
<path d="M34.2871 14.1661L35.2404 11.7632H37.993L36.6867 8.11815L38.3205 4.00003L43 16.3841H39.549L38.7494 14.1661H34.2871Z" fill="#3D3D3D"/>
<path d="M31.343 16.3841L36.3525 4.00005L33.0314 4.00007L29.6046 12.0029L27.1678 4.00008H24.615L21.9985 12.0029L20.1534 8.3562L18.4835 13.4839L20.1789 16.3841H23.4473L25.8117 9.20729L28.066 16.3841H31.343Z" fill="#5A0FC8"/>
<path d="M13.1525 12.133H15.1982C15.8178 12.133 16.3696 12.064 16.8535 11.9262L17.3826 10.3016L18.8611 5.76129C18.7485 5.58331 18.6198 5.41502 18.4753 5.25646C17.7161 4.4189 16.6054 4.00014 15.1431 4.00014H10V16.3842H13.1525V12.133ZM15.8602 6.84922C16.1568 7.14668 16.305 7.54474 16.305 8.04344C16.305 8.54596 16.1746 8.94451 15.9139 9.23909C15.628 9.56641 15.1016 9.73007 14.3347 9.73007H13.1525V6.403H14.3434C15.0581 6.403 15.5637 6.55174 15.8602 6.84922Z" fill="#3D3D3D"/>
<defs>
<linearGradient id="paint0_linear" x1="63" y1="4.00003" x2="63" y2="16" gradientUnits="userSpaceOnUse">
<stop stop-color="#57BF65"/>
<stop offset="1" stop-color="#459B82"/>
</linearGradient>
</defs>
</svg>
