<svg width="94" height="20" viewBox="0 0 94 20" fill="none" xmlns="http://www.w3.org/2000/svg">
<path d="M70.5 0.5H89C91.4853 0.5 93.5 2.51472 93.5 5V15C93.5 17.4853 91.4853 19.5 89 19.5H70.5V0.5Z" fill="#56BE67" stroke="#56BE67"/>
<circle cx="82" cy="10" r="5.5" fill="url(#paint0_linear)" stroke="white"/>
<rect x="80.0502" y="11.8712" width="6.85" height="1.15" transform="rotate(-45.3263 80.0502 11.8712)" fill="white"/>
<rect x="78.8572" y="9.00003" width="3" height="1.22153" transform="rotate(44.5671 78.8572 9.00003)" fill="white"/>
<path d="M0.5 5C0.5 2.51472 2.51472 0.5 5 0.5H70.5V19.5H5C2.51472 19.5 0.5 17.4853 0.5 15V5Z" fill="#9CC6A3" stroke="#56BE67"/>
<path d="M34.2872 14.1627L35.2405 11.7606H37.9931L36.6868 8.11675L38.3205 4L43 16.38H39.5491L38.7494 14.1627H34.2872Z" fill="white"/>
<path d="M31.3428 16.38L36.3523 4L33.0312 4.00002L29.6044 12.0002L27.1676 4.00003H24.6149L21.9984 12.0002L20.1532 8.3547L18.4834 13.4807L20.1788 16.38H23.4472L25.8115 9.20551L28.0658 16.38H31.3428Z" fill="white"/>
<path d="M13.1525 12.1301H15.1981C15.8178 12.1301 16.3696 12.0612 16.8535 11.9234L17.3825 10.2994L18.8611 5.76057C18.7484 5.58264 18.6198 5.41442 18.4752 5.25591C17.7161 4.41863 16.6054 4 15.1431 4H10V16.38H13.1525V12.1301ZM15.8602 6.84814C16.1567 7.1455 16.305 7.54343 16.305 8.04196C16.305 8.54431 16.1746 8.94273 15.9138 9.23722C15.628 9.56443 15.1016 9.72803 14.3347 9.72803H13.1525V6.40206H14.3434C15.0581 6.40206 15.5637 6.55075 15.8602 6.84814Z" fill="white"/>
<path d="M55.6 4C52.3 4 49.6 6.7855 49.6 10.19C49.6 13.5945 52.3 16.38 55.6 16.38C58.9 16.38 61.6 13.5945 61.6 10.19C61.6 6.7855 58.9 4 55.6 4ZM52.2571 13.6387C51.3571 12.7102 50.8857 11.4722 50.8857 10.2784L55.5571 15.0536C54.3571 15.0094 53.1571 14.5672 52.2571 13.6387ZM56.6285 14.9209L51.0143 9.12886C51.4857 6.96236 53.3714 5.32643 55.6 5.32643C57.1857 5.32643 58.5571 6.12229 59.4143 7.31607L58.7714 7.89086C58.0428 6.87393 56.8857 6.21071 55.6 6.21071C53.9285 6.21071 52.5143 7.31607 51.9571 8.86357L56.8857 13.9482C58.1285 13.5061 59.0714 12.4007 59.3714 11.0743H57.3143V10.19H60.3143C60.3143 12.4891 58.7285 14.4346 56.6285 14.9209Z" fill="white"/>
<rect x="45.3199" y="7.714" width="0.96" height="4.952" rx="0.48" fill="white"/>
<rect x="43.4" y="9.69481" width="4.8" height="0.9904" rx="0.4952" fill="white"/>
<defs>
<linearGradient id="paint0_linear" x1="82" y1="4.00003" x2="82" y2="16" gradientUnits="userSpaceOnUse">
<stop stop-color="#57BF65"/>
<stop offset="1" stop-color="#459B82"/>
</linearGradient>
</defs>
</svg>
