<svg width="108" height="20" viewBox="0 0 108 20" fill="none" xmlns="http://www.w3.org/2000/svg">
<path d="M0.5 5C0.5 2.51472 2.51472 0.5 5 0.5H51.5V19.5H5C2.51472 19.5 0.5 17.4853 0.5 15V5Z" fill="white" stroke="#56BE67"/>
<path d="M33.2871 14.166L34.2404 11.7632H36.993L35.6867 8.11812L37.3205 4L42 16.3841H38.549L37.7494 14.166H33.2871Z" fill="#3D3D3D"/>
<path d="M30.343 16.3841L35.3525 4.00002L32.0314 4.00003L28.6046 12.0029L26.1678 4.00005H23.615L20.9985 12.0029L19.1534 8.35616L17.4835 13.4838L19.1789 16.3841H22.4473L24.8117 9.20725L27.066 16.3841H30.343Z" fill="#5A0FC8"/>
<path d="M12.1525 12.1329H14.1982C14.8178 12.1329 15.3696 12.064 15.8535 11.9261L16.3826 10.3016L17.8611 5.76126C17.7485 5.58328 17.6198 5.41499 17.4753 5.25643C16.7161 4.41887 15.6054 4.00011 14.1431 4.00011H9V16.3842H12.1525V12.1329ZM14.8602 6.84919C15.1568 7.14665 15.305 7.54471 15.305 8.04341C15.305 8.54593 15.1746 8.94448 14.9139 9.23906C14.628 9.56638 14.1016 9.73004 13.3347 9.73004H12.1525V6.40297H13.3434C14.0581 6.40297 14.5637 6.55171 14.8602 6.84919Z" fill="#3D3D3D"/>
<path d="M51.5 0.5H103C105.485 0.5 107.5 2.51472 107.5 5V15C107.5 17.4853 105.485 19.5 103 19.5H51.5V0.5Z" fill="#DCEDDC" stroke="#49A07F"/>
<path d="M60.18 14.08C59.48 14.08 58.8467 13.9267 58.28 13.62C57.72 13.3067 57.28 12.88 56.96 12.34C56.64 11.7933 56.48 11.18 56.48 10.5C56.48 9.82 56.64 9.21 56.96 8.67C57.28 8.12333 57.7233 7.69667 58.29 7.39C58.8567 7.07667 59.49 6.92 60.19 6.92C60.7367 6.92 61.2367 7.01333 61.69 7.2C62.1433 7.38 62.53 7.65 62.85 8.01L62.2 8.64C61.6733 8.08667 61.0167 7.81 60.23 7.81C59.71 7.81 59.24 7.92667 58.82 8.16C58.4 8.39333 58.07 8.71667 57.83 9.13C57.5967 9.53667 57.48 9.99333 57.48 10.5C57.48 11.0067 57.5967 11.4667 57.83 11.88C58.07 12.2867 58.4 12.6067 58.82 12.84C59.24 13.0733 59.71 13.19 60.23 13.19C61.01 13.19 61.6667 12.91 62.2 12.35L62.85 12.98C62.53 13.34 62.14 13.6133 61.68 13.8C61.2267 13.9867 60.7267 14.08 60.18 14.08ZM68.702 11.38C68.702 11.4533 68.6953 11.55 68.682 11.67H64.382C64.442 12.1367 64.6453 12.5133 64.992 12.8C65.3453 13.08 65.782 13.22 66.302 13.22C66.9353 13.22 67.4453 13.0067 67.832 12.58L68.362 13.2C68.122 13.48 67.822 13.6933 67.462 13.84C67.1086 13.9867 66.712 14.06 66.272 14.06C65.712 14.06 65.2153 13.9467 64.782 13.72C64.3486 13.4867 64.012 13.1633 63.772 12.75C63.5386 12.3367 63.422 11.87 63.422 11.35C63.422 10.8367 63.5353 10.3733 63.762 9.96C63.9953 9.54667 64.312 9.22667 64.712 9C65.1186 8.76667 65.5753 8.65 66.082 8.65C66.5886 8.65 67.0386 8.76667 67.432 9C67.832 9.22667 68.142 9.54667 68.362 9.96C68.5886 10.3733 68.702 10.8467 68.702 11.38ZM66.082 9.46C65.622 9.46 65.2353 9.6 64.922 9.88C64.6153 10.16 64.4353 10.5267 64.382 10.98H67.782C67.7286 10.5333 67.5453 10.17 67.232 9.89C66.9253 9.60333 66.542 9.46 66.082 9.46ZM70.955 9.59C71.1217 9.28333 71.3683 9.05 71.695 8.89C72.0217 8.73 72.4183 8.65 72.885 8.65V9.58C72.8317 9.57333 72.7583 9.57 72.665 9.57C72.145 9.57 71.735 9.72667 71.435 10.04C71.1417 10.3467 70.995 10.7867 70.995 11.36V14H70.035V8.7H70.955V9.59ZM77.263 13.69C77.123 13.81 76.9497 13.9033 76.743 13.97C76.5364 14.03 76.323 14.06 76.103 14.06C75.5697 14.06 75.1564 13.9167 74.863 13.63C74.5697 13.3433 74.423 12.9333 74.423 12.4V9.49H73.523V8.7H74.423V7.54H75.383V8.7H76.903V9.49H75.383V12.36C75.383 12.6467 75.453 12.8667 75.593 13.02C75.7397 13.1733 75.9464 13.25 76.213 13.25C76.5064 13.25 76.7564 13.1667 76.963 13L77.263 13.69ZM78.4237 8.7H79.3837V14H78.4237V8.7ZM78.9037 7.68C78.717 7.68 78.5603 7.62 78.4337 7.5C78.3137 7.38 78.2537 7.23333 78.2537 7.06C78.2537 6.88667 78.3137 6.74 78.4337 6.62C78.5603 6.49333 78.717 6.43 78.9037 6.43C79.0903 6.43 79.2437 6.49 79.3637 6.61C79.4903 6.72333 79.5537 6.86667 79.5537 7.04C79.5537 7.22 79.4903 7.37333 79.3637 7.5C79.2437 7.62 79.0903 7.68 78.9037 7.68ZM83.1566 7.31C82.5833 7.31 82.2966 7.62 82.2966 8.24V8.7H83.8366V9.49H82.3166V14H81.3566V9.49H80.4566V8.7H81.3566V8.23C81.3566 7.70333 81.51 7.28667 81.8166 6.98C82.1233 6.67333 82.5533 6.52 83.1066 6.52C83.32 6.52 83.52 6.54667 83.7066 6.6C83.8933 6.65333 84.0533 6.73 84.1866 6.83L83.8966 7.56C83.6766 7.39333 83.43 7.31 83.1566 7.31ZM85.5466 8.7H86.5066V14H85.5466V8.7ZM86.0266 7.68C85.84 7.68 85.6833 7.62 85.5566 7.5C85.4366 7.38 85.3766 7.23333 85.3766 7.06C85.3766 6.88667 85.4366 6.74 85.5566 6.62C85.6833 6.49333 85.84 6.43 86.0266 6.43C86.2133 6.43 86.3666 6.49 86.4866 6.61C86.6133 6.72333 86.6766 6.86667 86.6766 7.04C86.6766 7.22 86.6133 7.37333 86.4866 7.5C86.3666 7.62 86.2133 7.68 86.0266 7.68ZM93.1258 11.38C93.1258 11.4533 93.1191 11.55 93.1058 11.67H88.8058C88.8658 12.1367 89.0691 12.5133 89.4158 12.8C89.7691 13.08 90.2058 13.22 90.7258 13.22C91.3591 13.22 91.8691 13.0067 92.2558 12.58L92.7858 13.2C92.5458 13.48 92.2458 13.6933 91.8858 13.84C91.5324 13.9867 91.1358 14.06 90.6958 14.06C90.1358 14.06 89.6391 13.9467 89.2058 13.72C88.7724 13.4867 88.4358 13.1633 88.1958 12.75C87.9624 12.3367 87.8458 11.87 87.8458 11.35C87.8458 10.8367 87.9591 10.3733 88.1858 9.96C88.4191 9.54667 88.7358 9.22667 89.1358 9C89.5424 8.76667 89.9991 8.65 90.5058 8.65C91.0124 8.65 91.4624 8.76667 91.8558 9C92.2558 9.22667 92.5658 9.54667 92.7858 9.96C93.0124 10.3733 93.1258 10.8467 93.1258 11.38ZM90.5058 9.46C90.0458 9.46 89.6591 9.6 89.3458 9.88C89.0391 10.16 88.8591 10.5267 88.8058 10.98H92.2058C92.1524 10.5333 91.9691 10.17 91.6558 9.89C91.3491 9.60333 90.9658 9.46 90.5058 9.46ZM99.4588 6.58V14H98.5388V13.16C98.3255 13.4533 98.0555 13.6767 97.7288 13.83C97.4022 13.9833 97.0422 14.06 96.6488 14.06C96.1355 14.06 95.6755 13.9467 95.2688 13.72C94.8622 13.4933 94.5422 13.1767 94.3088 12.77C94.0822 12.3567 93.9688 11.8833 93.9688 11.35C93.9688 10.8167 94.0822 10.3467 94.3088 9.94C94.5422 9.53333 94.8622 9.21667 95.2688 8.99C95.6755 8.76333 96.1355 8.65 96.6488 8.65C97.0288 8.65 97.3788 8.72333 97.6988 8.87C98.0188 9.01 98.2855 9.22 98.4988 9.5V6.58H99.4588ZM96.7288 13.22C97.0622 13.22 97.3655 13.1433 97.6388 12.99C97.9122 12.83 98.1255 12.61 98.2788 12.33C98.4322 12.0433 98.5088 11.7167 98.5088 11.35C98.5088 10.9833 98.4322 10.66 98.2788 10.38C98.1255 10.0933 97.9122 9.87333 97.6388 9.72C97.3655 9.56667 97.0622 9.49 96.7288 9.49C96.3888 9.49 96.0822 9.56667 95.8088 9.72C95.5422 9.87333 95.3288 10.0933 95.1688 10.38C95.0155 10.66 94.9388 10.9833 94.9388 11.35C94.9388 11.7167 95.0155 12.0433 95.1688 12.33C95.3288 12.61 95.5422 12.83 95.8088 12.99C96.0822 13.1433 96.3888 13.22 96.7288 13.22Z" fill="#49A07F"/>
</svg>
