<svg width="128" height="128" viewBox="0 0 128 128" fill="none" xmlns="http://www.w3.org/2000/svg">
<path d="M0 64H128V118C128 123.523 123.523 128 118 128H10C4.47715 128 0 123.523 0 118V64Z" fill="#5A0FC8"/>
<path d="M25.9053 103.155C24.5663 103.155 23.2788 102.94 22.0428 102.511C20.8239 102.082 19.8798 101.515 19.2103 100.811L19.957 99.3435C20.6093 99.9958 21.4763 100.528 22.5578 100.94C23.6393 101.335 24.7551 101.532 25.9053 101.532C27.5189 101.532 28.7292 101.24 29.536 100.657C30.3428 100.056 30.7463 99.2834 30.7463 98.3392C30.7463 97.6182 30.5231 97.0432 30.0768 96.614C29.6476 96.1848 29.1154 95.8587 28.4803 95.6355C27.8451 95.3952 26.961 95.1377 25.828 94.863C24.4718 94.5197 23.3903 94.1935 22.5835 93.8845C21.7767 93.5583 21.0814 93.0691 20.4978 92.4167C19.9313 91.7644 19.648 90.8803 19.648 89.7645C19.648 88.8547 19.8883 88.0307 20.369 87.2925C20.8497 86.5372 21.5878 85.9363 22.5835 85.49C23.5792 85.0437 24.8152 84.8205 26.2915 84.8205C27.3215 84.8205 28.3258 84.9664 29.3043 85.2582C30.2999 85.5329 31.1583 85.9192 31.8793 86.417L31.2355 87.9362C30.4802 87.4384 29.6733 87.0693 28.815 86.829C27.9567 86.5715 27.1155 86.4427 26.2915 86.4427C24.7122 86.4427 23.5191 86.7517 22.7123 87.3697C21.9226 87.9706 21.5278 88.7517 21.5278 89.713C21.5278 90.434 21.7423 91.0177 22.1715 91.464C22.6178 91.8932 23.1672 92.2279 23.8195 92.4682C24.489 92.6914 25.3817 92.9403 26.4975 93.215C27.8193 93.5412 28.8837 93.8673 29.6905 94.1935C30.5145 94.5025 31.2098 94.9832 31.7763 95.6355C32.3428 96.2707 32.626 97.1376 32.626 98.2362C32.626 99.1461 32.3771 99.9787 31.8793 100.734C31.3986 101.472 30.6518 102.064 29.639 102.511C28.6262 102.94 27.3816 103.155 25.9053 103.155ZM43.2925 89.3525C44.992 89.3525 46.3396 89.8503 47.3353 90.846C48.3481 91.8245 48.8545 93.2579 48.8545 95.1462V103H47.0263V95.3265C47.0263 93.9188 46.6744 92.8459 45.9705 92.1077C45.2667 91.3696 44.2625 91.0005 42.9578 91.0005C41.4986 91.0005 40.3399 91.4382 39.4815 92.3137C38.6404 93.1721 38.2198 94.3652 38.2198 95.893V103H36.3915V83.8935H38.2198V91.8245C38.7176 91.0348 39.4043 90.4254 40.2798 89.9963C41.1553 89.5671 42.1595 89.3525 43.2925 89.3525ZM53.818 89.4555H55.6463V103H53.818V89.4555ZM54.745 86.4942C54.3674 86.4942 54.0498 86.3655 53.7923 86.108C53.5348 85.8505 53.406 85.5415 53.406 85.181C53.406 84.8377 53.5348 84.5372 53.7923 84.2797C54.0498 84.0222 54.3674 83.8935 54.745 83.8935C55.1227 83.8935 55.4403 84.0222 55.6978 84.2797C55.9553 84.5201 56.084 84.8119 56.084 85.1552C56.084 85.5329 55.9553 85.8505 55.6978 86.108C55.4403 86.3655 55.1227 86.4942 54.745 86.4942ZM72.5268 96.7942H61.1968C61.2998 98.2019 61.8406 99.3435 62.8191 100.219C63.7976 101.077 65.0336 101.506 66.5271 101.506C67.3682 101.506 68.1407 101.361 68.8446 101.069C69.5484 100.76 70.1578 100.313 70.6728 99.7297L71.7028 100.914C71.102 101.635 70.3467 102.185 69.4368 102.562C68.5442 102.94 67.5571 103.129 66.4756 103.129C65.0851 103.129 63.8491 102.837 62.7676 102.253C61.7032 101.652 60.8707 100.828 60.2698 99.7812C59.669 98.7341 59.3686 97.5496 59.3686 96.2277C59.3686 94.9059 59.6518 93.7214 60.2183 92.6742C60.802 91.6271 61.5917 90.8117 62.5873 90.228C63.6002 89.6443 64.7332 89.3525 65.9863 89.3525C67.2395 89.3525 68.3639 89.6443 69.3596 90.228C70.3552 90.8117 71.1363 91.6271 71.7028 92.6742C72.2693 93.7042 72.5526 94.8887 72.5526 96.2277L72.5268 96.7942ZM65.9863 90.9232C64.6817 90.9232 63.583 91.3438 62.6903 92.185C61.8148 93.009 61.317 94.0905 61.1968 95.4295H70.8016C70.6814 94.0905 70.175 93.009 69.2823 92.185C68.4068 91.3438 67.3082 90.9232 65.9863 90.9232ZM76.2739 83.8935H78.1021V103H76.2739V83.8935ZM95.5491 83.8935V103H93.7981V100.322C93.2488 101.232 92.5192 101.927 91.6094 102.408C90.7167 102.888 89.7039 103.129 88.5709 103.129C87.3006 103.129 86.1504 102.837 85.1204 102.253C84.0904 101.67 83.2836 100.854 82.6999 99.807C82.1162 98.7598 81.8244 97.5667 81.8244 96.2277C81.8244 94.8887 82.1162 93.6957 82.6999 92.6485C83.2836 91.6013 84.0904 90.7945 85.1204 90.228C86.1504 89.6443 87.3006 89.3525 88.5709 89.3525C89.6696 89.3525 90.6566 89.5842 91.5321 90.0477C92.4248 90.4941 93.1544 91.155 93.7209 92.0305V83.8935H95.5491ZM88.7254 101.506C89.6696 101.506 90.5193 101.292 91.2746 100.863C92.0471 100.416 92.648 99.7898 93.0771 98.983C93.5235 98.1762 93.7466 97.2577 93.7466 96.2277C93.7466 95.1977 93.5235 94.2793 93.0771 93.4725C92.648 92.6657 92.0471 92.0477 91.2746 91.6185C90.5193 91.1722 89.6696 90.949 88.7254 90.949C87.7641 90.949 86.8971 91.1722 86.1246 91.6185C85.3693 92.0477 84.7685 92.6657 84.3221 93.4725C83.893 94.2793 83.6784 95.1977 83.6784 96.2277C83.6784 97.2577 83.893 98.1762 84.3221 98.983C84.7685 99.7898 85.3693 100.416 86.1246 100.863C86.8971 101.292 87.7641 101.506 88.7254 101.506ZM104.272 103.129C103.173 103.129 102.117 102.974 101.104 102.665C100.109 102.339 99.3276 101.936 98.7611 101.455L99.5851 100.013C100.152 100.459 100.864 100.828 101.722 101.12C102.581 101.395 103.473 101.532 104.4 101.532C105.636 101.532 106.546 101.343 107.13 100.966C107.731 100.571 108.031 100.022 108.031 99.3177C108.031 98.8199 107.868 98.4337 107.542 98.159C107.216 97.8672 106.804 97.6526 106.306 97.5152C105.808 97.3607 105.147 97.2148 104.323 97.0775C103.224 96.8715 102.34 96.6655 101.671 96.4595C101.001 96.2363 100.426 95.8672 99.9456 95.3522C99.4821 94.8372 99.2503 94.1248 99.2503 93.215C99.2503 92.082 99.7224 91.155 100.667 90.434C101.611 89.713 102.924 89.3525 104.606 89.3525C105.482 89.3525 106.357 89.4727 107.233 89.713C108.108 89.9362 108.829 90.2366 109.396 90.6142L108.598 92.082C107.482 91.3095 106.151 90.9232 104.606 90.9232C103.439 90.9232 102.555 91.1292 101.954 91.5412C101.37 91.9532 101.079 92.494 101.079 93.1635C101.079 93.6785 101.242 94.0905 101.568 94.3995C101.911 94.7085 102.332 94.9402 102.83 95.0947C103.327 95.2321 104.014 95.378 104.89 95.5325C105.971 95.7385 106.838 95.9445 107.49 96.1505C108.143 96.3565 108.701 96.7084 109.164 97.2062C109.628 97.7041 109.859 98.3907 109.859 99.2662C109.859 100.451 109.361 101.395 108.366 102.099C107.387 102.785 106.023 103.129 104.272 103.129Z" fill="white"/>
<path d="M0 10C0 4.47715 4.47715 0 10 0H118C123.523 0 128 4.47715 128 10V64H0V10Z" fill="white"/>
<path d="M87.4369 43.6461L90.1232 36.8752H97.8795L94.1986 26.6041L98.8022 15L111.988 49.8961H102.264L100.011 43.6461H87.4369Z" fill="#3D3D3D"/>
<path d="M79.1409 49.8962L93.2568 15.0001L83.8984 15.0001L74.2423 37.5508L67.3758 15.0002H60.1825L52.8098 37.5508L47.6103 27.2749L42.9051 41.7238L47.6823 49.8962H56.8921L63.5546 29.6731L69.9068 49.8962H79.1409Z" fill="#5A0FC8"/>
<path d="M27.8832 37.9169H33.6475C35.3936 37.9169 36.9485 37.7227 38.312 37.3342L39.8027 32.7565L43.9691 19.9626C43.6516 19.4611 43.2892 18.9869 42.8818 18.5401C40.7426 16.18 37.6129 15 33.4924 15H19V49.8962H27.8832V37.9169ZM35.5131 23.0282C36.3487 23.8664 36.7664 24.9881 36.7664 26.3933C36.7664 27.8094 36.399 28.9324 35.6642 29.7625C34.8586 30.6848 33.3754 31.146 31.2144 31.146H27.8832V21.7709H31.2389C33.2529 21.7709 34.6776 22.19 35.5131 23.0282Z" fill="#3D3D3D"/>
</svg>
