<svg width="94" height="20" viewBox="0 0 94 20" fill="none" xmlns="http://www.w3.org/2000/svg">
<path d="M70.5 0.5H89C91.4853 0.5 93.5 2.51472 93.5 5V15C93.5 17.4853 91.4853 19.5 89 19.5H70.5V0.5Z" fill="#5A0FC8" stroke="#5A0FC8"/>
<circle cx="82" cy="10" r="5.5" fill="url(#paint0_linear)" stroke="white"/>
<rect x="80.0502" y="11.8712" width="6.85" height="1.15" transform="rotate(-45.3263 80.0502 11.8712)" fill="white"/>
<rect x="78.8572" y="9.00003" width="3" height="1.22153" transform="rotate(44.5671 78.8572 9.00003)" fill="white"/>
<path d="M5 0.5H70.5V19.5H5C2.51472 19.5 0.5 17.4853 0.5 15V5C0.5 2.51472 2.51472 0.5 5 0.5Z" fill="#5A0FC8" fill-opacity="0.4" stroke="#5A0FC8"/>
<path d="M32.0793 13.8507L32.946 11.5224H35.4484L34.2608 7.99039L35.746 4L40.0001 16H36.8629L36.136 13.8507H32.0793Z" fill="white"/>
<path d="M29.4027 16L33.9568 4.00001L30.9376 4.00002L27.8223 11.7547L25.607 4.00004H23.2863L20.9077 11.7547L19.2302 8.22104L17.7122 13.1897L19.2535 16H22.2247L24.3742 9.04574L26.4236 16H29.4027Z" fill="#5A0FC8"/>
<path d="M12.8659 11.8806H14.7256C15.2889 11.8806 15.7906 11.8138 16.2305 11.6802L16.7114 10.106L18.0556 5.70653C17.9531 5.53406 17.8362 5.371 17.7048 5.21736C17.0146 4.40578 16.0049 4 14.6755 4H10V16H12.8659V11.8806ZM15.3275 6.76071C15.5971 7.04895 15.7318 7.43467 15.7318 7.91789C15.7318 8.40483 15.6133 8.79102 15.3762 9.07646C15.1163 9.39363 14.6378 9.55221 13.9406 9.55221H12.8659V6.32833H13.9485C14.5983 6.32833 15.0579 6.47246 15.3275 6.76071Z" fill="white"/>
<path d="M55.6 4C52.3 4 49.6 6.7 49.6 10C49.6 13.3 52.3 16 55.6 16C58.9 16 61.6 13.3 61.6 10C61.6 6.7 58.9 4 55.6 4ZM52.2571 13.3429C51.3571 12.4429 50.8857 11.2429 50.8857 10.0857L55.5571 14.7143C54.3571 14.6714 53.1571 14.2429 52.2571 13.3429ZM56.6285 14.5857L51.0143 8.97143C51.4857 6.87143 53.3714 5.28571 55.6 5.28571C57.1857 5.28571 58.5571 6.05714 59.4143 7.21429L58.7714 7.77143C58.0428 6.78571 56.8857 6.14286 55.6 6.14286C53.9285 6.14286 52.5143 7.21429 51.9571 8.71429L56.8857 13.6429C58.1285 13.2143 59.0714 12.1429 59.3714 10.8571H57.3143V10H60.3143C60.3143 12.2286 58.7285 14.1143 56.6285 14.5857Z" fill="white"/>
<rect x="44.3199" y="7.6" width="0.96" height="4.8" rx="0.48" fill="white"/>
<rect x="42.4" y="9.52" width="4.8" height="0.96" rx="0.48" fill="white"/>
<defs>
<linearGradient id="paint0_linear" x1="82" y1="4.00003" x2="82" y2="16" gradientUnits="userSpaceOnUse">
<stop stop-color="#57BF65"/>
<stop offset="1" stop-color="#459B82"/>
</linearGradient>
</defs>
</svg>
