<svg width="94" height="20" viewBox="0 0 94 20" fill="none" xmlns="http://www.w3.org/2000/svg">
<path d="M70.5 0.5H89C91.4853 0.5 93.5 2.51472 93.5 5V15C93.5 17.4853 91.4853 19.5 89 19.5H70.5V0.5Z" fill="#56BE67" stroke="#56BE67"/>
<circle cx="82" cy="10" r="5.5" fill="url(#paint0_linear)" stroke="white"/>
<rect x="80.0502" y="11.8712" width="6.85" height="1.15" transform="rotate(-45.3263 80.0502 11.8712)" fill="white"/>
<rect x="78.8572" y="9.00003" width="3" height="1.22153" transform="rotate(44.5671 78.8572 9.00003)" fill="white"/>
<path d="M5 0.5H70.5V19.5H5C2.51472 19.5 0.5 17.4853 0.5 15V5C0.5 2.51472 2.51472 0.5 5 0.5Z" fill="#56BE67" fill-opacity="0.4" stroke="#56BE67"/>
<path d="M32.0793 13.8507L32.946 11.5224H35.4484L34.2608 7.99039L35.746 4L40.0001 16H36.8629L36.136 13.8507H32.0793Z" fill="white"/>
<path d="M29.4027 16L33.9568 4L30.9376 4.00002L27.8223 11.7547L25.607 4.00003H23.2863L20.9077 11.7547L19.2302 8.22104L17.7122 13.1897L19.2535 16H22.2247L24.3742 9.04573L26.4236 16H29.4027Z" fill="white"/>
<path d="M12.8659 11.8806H14.7256C15.2889 11.8806 15.7906 11.8138 16.2305 11.6802L16.7114 10.106L18.0556 5.70653C17.9531 5.53406 17.8362 5.371 17.7048 5.21736C17.0146 4.40578 16.0049 4 14.6755 4H10V16H12.8659V11.8806ZM15.3275 6.76071C15.5971 7.04895 15.7318 7.43467 15.7318 7.91789C15.7318 8.40483 15.6133 8.79102 15.3762 9.07646C15.1163 9.39363 14.6378 9.55221 13.9406 9.55221H12.8659V6.32833H13.9485C14.5983 6.32833 15.0579 6.47246 15.3275 6.76071Z" fill="white"/>
<rect x="44.3199" y="7.60001" width="0.96" height="4.8" rx="0.48" fill="white"/>
<rect x="42.4" y="9.52" width="4.8" height="0.96" rx="0.48" fill="white"/>
<path d="M62.4877 10.0014C62.4877 9.10872 61.3688 8.26276 59.6532 7.73816C60.0491 5.9913 59.8732 4.60151 59.0979 4.15656C58.9192 4.05219 58.7103 4.00275 58.4821 4.00275V4.61524C58.6085 4.61524 58.7103 4.63996 58.7955 4.68666C59.1694 4.90089 59.3316 5.71664 59.2051 6.76585C59.1749 7.02403 59.1254 7.29595 59.0649 7.57336C58.5261 7.44152 57.9377 7.33989 57.3192 7.27398C56.948 6.76585 56.5631 6.30442 56.1755 5.90066C57.0717 5.06844 57.913 4.6125 58.4848 4.6125V4C57.7288 4 56.7391 4.53834 55.7384 5.47219C54.7376 4.54383 53.7479 4.01099 52.9919 4.01099V4.62348C53.561 4.62348 54.405 5.07668 55.3012 5.90341C54.9163 6.30716 54.5314 6.76585 54.1658 7.27398C53.5445 7.33989 52.9561 7.44152 52.4173 7.5761C52.3541 7.30144 52.3073 7.03502 52.2743 6.77958C52.1451 5.73037 52.3046 4.91463 52.6757 4.69764C52.7582 4.6482 52.8654 4.62623 52.9919 4.62623V4.01373C52.7609 4.01373 52.552 4.06317 52.3705 4.16754C51.598 4.6125 51.4248 5.99954 51.8235 7.7409C50.1134 8.26825 49 9.11147 49 10.0014C49 10.894 50.1189 11.74 51.8345 12.2646C51.4386 14.0114 51.6145 15.4012 52.3898 15.8462C52.5685 15.9506 52.7774 16 53.0084 16C53.7644 16 54.7541 15.4617 55.7548 14.5278C56.7556 15.4562 57.7453 15.989 58.5013 15.989C58.7323 15.989 58.9412 15.9396 59.1226 15.8352C59.8952 15.3902 60.0684 14.0032 59.6697 12.2618C61.3743 11.7372 62.4877 10.8913 62.4877 10.0014ZM58.9082 8.16937C58.8065 8.52369 58.68 8.88899 58.5371 9.25429C58.4243 9.03456 58.3061 8.81483 58.1769 8.5951C58.0504 8.37537 57.9157 8.16113 57.781 7.95239C58.1714 8.01007 58.5481 8.08148 58.9082 8.16937ZM57.6491 11.0945C57.4346 11.4653 57.2147 11.8169 56.9865 12.1437C56.5769 12.1794 56.1617 12.1987 55.7438 12.1987C55.3287 12.1987 54.9136 12.1794 54.5067 12.1465C54.2785 11.8196 54.0558 11.4708 53.8414 11.1028C53.6324 10.743 53.4427 10.3777 53.2695 10.0096C53.44 9.64156 53.6324 9.27352 53.8386 8.91371C54.0531 8.54292 54.273 8.19135 54.5012 7.8645C54.9108 7.82879 55.326 7.80957 55.7438 7.80957C56.159 7.80957 56.5741 7.82879 56.981 7.86175C57.2092 8.1886 57.4319 8.53742 57.6463 8.90547C57.8553 9.26528 58.045 9.63058 58.2182 9.99863C58.045 10.3667 57.8553 10.7347 57.6491 11.0945ZM58.5371 10.7375C58.6855 11.1055 58.812 11.4736 58.9165 11.8306C58.5563 11.9185 58.1769 11.9927 57.7838 12.0504C57.9185 11.8389 58.0532 11.6219 58.1797 11.3994C58.3061 11.1797 58.4243 10.9572 58.5371 10.7375ZM55.7493 13.6681C55.4937 13.4044 55.238 13.1106 54.9851 12.7892C55.2325 12.8002 55.4854 12.8084 55.7411 12.8084C55.9995 12.8084 56.2552 12.8029 56.5054 12.7892C56.258 13.1106 56.0023 13.4044 55.7493 13.6681ZM53.7039 12.0504C53.3135 11.9927 52.9369 11.9213 52.5767 11.8334C52.6785 11.4791 52.8049 11.1138 52.9479 10.7485C53.0606 10.9682 53.1788 11.1879 53.308 11.4076C53.4372 11.6274 53.5692 11.8416 53.7039 12.0504ZM55.7356 6.33463C55.9913 6.59831 56.247 6.89219 56.4999 7.21355C56.2525 7.20256 55.9995 7.19432 55.7438 7.19432C55.4854 7.19432 55.2297 7.19982 54.9796 7.21355C55.227 6.89219 55.4827 6.59831 55.7356 6.33463ZM53.7012 7.95239C53.5665 8.16388 53.4318 8.38087 53.3053 8.60334C53.1788 8.82307 53.0606 9.0428 52.9479 9.26253C52.7994 8.89448 52.673 8.52644 52.5685 8.16937C52.9286 8.08423 53.308 8.01007 53.7012 7.95239ZM51.2131 11.3912C50.2399 10.9764 49.6103 10.4326 49.6103 10.0014C49.6103 9.57015 50.2399 9.02357 51.2131 8.61158C51.4496 8.50996 51.708 8.41932 51.9747 8.33417C52.1314 8.87251 52.3376 9.43282 52.5932 10.0069C52.3403 10.5782 52.1369 11.1357 51.9829 11.6713C51.7107 11.5862 51.4523 11.4928 51.2131 11.3912ZM52.6922 15.3161C52.3183 15.1019 52.1561 14.2861 52.2826 13.2369C52.3128 12.9787 52.3623 12.7068 52.4228 12.4294C52.9616 12.5612 53.55 12.6629 54.1685 12.7288C54.5397 13.2369 54.9246 13.6983 55.3122 14.1021C54.416 14.9343 53.5747 15.3902 53.0029 15.3902C52.8792 15.3875 52.7747 15.3628 52.6922 15.3161ZM59.2134 13.2232C59.3426 14.2724 59.1831 15.0881 58.812 15.3051C58.7295 15.3545 58.6223 15.3765 58.4958 15.3765C57.9267 15.3765 57.0827 14.9233 56.1865 14.0966C56.5714 13.6928 56.9563 13.2341 57.3219 12.726C57.9432 12.6601 58.5316 12.5585 59.0704 12.4239C59.1336 12.7013 59.1831 12.9677 59.2134 13.2232ZM60.2718 11.3912C60.0354 11.4928 59.777 11.5834 59.5103 11.6686C59.3536 11.1302 59.1474 10.5699 58.8917 9.99588C59.1446 9.42458 59.3481 8.86702 59.502 8.33143C59.7742 8.41657 60.0326 8.50996 60.2746 8.61158C61.2478 9.02632 61.8774 9.57015 61.8774 10.0014C61.8746 10.4326 61.245 10.9792 60.2718 11.3912Z" fill="white"/>
<path d="M55.7411 11.2566C56.435 11.2566 56.9975 10.6946 56.9975 10.0014C56.9975 9.30815 56.435 8.74617 55.7411 8.74617C55.0472 8.74617 54.4847 9.30815 54.4847 10.0014C54.4847 10.6946 55.0472 11.2566 55.7411 11.2566Z" fill="white"/>
<defs>
<linearGradient id="paint0_linear" x1="82" y1="4.00003" x2="82" y2="16" gradientUnits="userSpaceOnUse">
<stop stop-color="#57BF65"/>
<stop offset="1" stop-color="#459B82"/>
</linearGradient>
</defs>
</svg>
