<svg width="108" height="20" viewBox="0 0 108 20" fill="none" xmlns="http://www.w3.org/2000/svg">
<path d="M0.5 5C0.5 2.51472 2.51472 0.5 5 0.5H51.5V19.5H5C2.51472 19.5 0.5 17.4853 0.5 15V5Z" fill="white" stroke="#3D3D3D"/>
<path d="M33.2871 14.166L34.2404 11.7632H36.993L35.6867 8.11812L37.3205 4L42 16.3841H38.549L37.7494 14.166H33.2871Z" fill="#3D3D3D"/>
<path d="M30.343 16.3841L35.3525 4.00002L32.0314 4.00003L28.6046 12.0029L26.1678 4.00005H23.615L20.9985 12.0029L19.1534 8.35616L17.4835 13.4838L19.1789 16.3841H22.4473L24.8117 9.20725L27.066 16.3841H30.343Z" fill="#5A0FC8"/>
<path d="M12.1525 12.1329H14.1982C14.8178 12.1329 15.3696 12.064 15.8535 11.9261L16.3826 10.3016L17.8611 5.76126C17.7485 5.58328 17.6198 5.41499 17.4753 5.25643C16.7161 4.41887 15.6054 4.00011 14.1431 4.00011H9V16.3842H12.1525V12.1329ZM14.8602 6.84919C15.1568 7.14665 15.305 7.54471 15.305 8.04341C15.305 8.54593 15.1746 8.94448 14.9139 9.23906C14.628 9.56638 14.1016 9.73004 13.3347 9.73004H12.1525V6.40297H13.3434C14.0581 6.40297 14.5637 6.55171 14.8602 6.84919Z" fill="#3D3D3D"/>
<path d="M51.5 0.5H103C105.485 0.5 107.5 2.51472 107.5 5V15C107.5 17.4853 105.485 19.5 103 19.5H51.5V0.5Z" fill="#D1CBCB" stroke="#3D3D3D"/>
<path d="M61.18 14.08C60.48 14.08 59.8467 13.9267 59.28 13.62C58.72 13.3067 58.28 12.88 57.96 12.34C57.64 11.7933 57.48 11.18 57.48 10.5C57.48 9.82 57.64 9.21 57.96 8.67C58.28 8.12333 58.7233 7.69667 59.29 7.39C59.8567 7.07667 60.49 6.92 61.19 6.92C61.7367 6.92 62.2367 7.01333 62.69 7.2C63.1433 7.38 63.53 7.65 63.85 8.01L63.2 8.64C62.6733 8.08667 62.0167 7.81 61.23 7.81C60.71 7.81 60.24 7.92667 59.82 8.16C59.4 8.39333 59.07 8.71667 58.83 9.13C58.5967 9.53667 58.48 9.99333 58.48 10.5C58.48 11.0067 58.5967 11.4667 58.83 11.88C59.07 12.2867 59.4 12.6067 59.82 12.84C60.24 13.0733 60.71 13.19 61.23 13.19C62.01 13.19 62.6667 12.91 63.2 12.35L63.85 12.98C63.53 13.34 63.14 13.6133 62.68 13.8C62.2267 13.9867 61.7267 14.08 61.18 14.08ZM69.702 11.38C69.702 11.4533 69.6953 11.55 69.682 11.67H65.382C65.442 12.1367 65.6453 12.5133 65.992 12.8C66.3453 13.08 66.782 13.22 67.302 13.22C67.9353 13.22 68.4453 13.0067 68.832 12.58L69.362 13.2C69.122 13.48 68.822 13.6933 68.462 13.84C68.1086 13.9867 67.712 14.06 67.272 14.06C66.712 14.06 66.2153 13.9467 65.782 13.72C65.3486 13.4867 65.012 13.1633 64.772 12.75C64.5386 12.3367 64.422 11.87 64.422 11.35C64.422 10.8367 64.5353 10.3733 64.762 9.96C64.9953 9.54667 65.312 9.22667 65.712 9C66.1186 8.76667 66.5753 8.65 67.082 8.65C67.5886 8.65 68.0386 8.76667 68.432 9C68.832 9.22667 69.142 9.54667 69.362 9.96C69.5886 10.3733 69.702 10.8467 69.702 11.38ZM67.082 9.46C66.622 9.46 66.2353 9.6 65.922 9.88C65.6153 10.16 65.4353 10.5267 65.382 10.98H68.782C68.7286 10.5333 68.5453 10.17 68.232 9.89C67.9253 9.60333 67.542 9.46 67.082 9.46ZM71.955 9.59C72.1217 9.28333 72.3683 9.05 72.695 8.89C73.0217 8.73 73.4183 8.65 73.885 8.65V9.58C73.8317 9.57333 73.7583 9.57 73.665 9.57C73.145 9.57 72.735 9.72667 72.435 10.04C72.1417 10.3467 71.995 10.7867 71.995 11.36V14H71.035V8.7H71.955V9.59ZM78.263 13.69C78.123 13.81 77.9497 13.9033 77.743 13.97C77.5364 14.03 77.323 14.06 77.103 14.06C76.5697 14.06 76.1564 13.9167 75.863 13.63C75.5697 13.3433 75.423 12.9333 75.423 12.4V9.49H74.523V8.7H75.423V7.54H76.383V8.7H77.903V9.49H76.383V12.36C76.383 12.6467 76.453 12.8667 76.593 13.02C76.7397 13.1733 76.9464 13.25 77.213 13.25C77.5064 13.25 77.7564 13.1667 77.963 13L78.263 13.69ZM79.4237 8.7H80.3837V14H79.4237V8.7ZM79.9037 7.68C79.717 7.68 79.5603 7.62 79.4337 7.5C79.3137 7.38 79.2537 7.23333 79.2537 7.06C79.2537 6.88667 79.3137 6.74 79.4337 6.62C79.5603 6.49333 79.717 6.43 79.9037 6.43C80.0903 6.43 80.2437 6.49 80.3637 6.61C80.4903 6.72333 80.5537 6.86667 80.5537 7.04C80.5537 7.22 80.4903 7.37333 80.3637 7.5C80.2437 7.62 80.0903 7.68 79.9037 7.68ZM84.1566 7.31C83.5833 7.31 83.2966 7.62 83.2966 8.24V8.7H84.8366V9.49H83.3166V14H82.3566V9.49H81.4566V8.7H82.3566V8.23C82.3566 7.70333 82.51 7.28667 82.8166 6.98C83.1233 6.67333 83.5533 6.52 84.1066 6.52C84.32 6.52 84.52 6.54667 84.7066 6.6C84.8933 6.65333 85.0533 6.73 85.1866 6.83L84.8966 7.56C84.6766 7.39333 84.43 7.31 84.1566 7.31ZM86.5466 8.7H87.5066V14H86.5466V8.7ZM87.0266 7.68C86.84 7.68 86.6833 7.62 86.5566 7.5C86.4366 7.38 86.3766 7.23333 86.3766 7.06C86.3766 6.88667 86.4366 6.74 86.5566 6.62C86.6833 6.49333 86.84 6.43 87.0266 6.43C87.2133 6.43 87.3666 6.49 87.4866 6.61C87.6133 6.72333 87.6766 6.86667 87.6766 7.04C87.6766 7.22 87.6133 7.37333 87.4866 7.5C87.3666 7.62 87.2133 7.68 87.0266 7.68ZM94.1258 11.38C94.1258 11.4533 94.1191 11.55 94.1058 11.67H89.8058C89.8658 12.1367 90.0691 12.5133 90.4158 12.8C90.7691 13.08 91.2058 13.22 91.7258 13.22C92.3591 13.22 92.8691 13.0067 93.2558 12.58L93.7858 13.2C93.5458 13.48 93.2458 13.6933 92.8858 13.84C92.5324 13.9867 92.1358 14.06 91.6958 14.06C91.1358 14.06 90.6391 13.9467 90.2058 13.72C89.7724 13.4867 89.4358 13.1633 89.1958 12.75C88.9624 12.3367 88.8458 11.87 88.8458 11.35C88.8458 10.8367 88.9591 10.3733 89.1858 9.96C89.4191 9.54667 89.7358 9.22667 90.1358 9C90.5424 8.76667 90.9991 8.65 91.5058 8.65C92.0124 8.65 92.4624 8.76667 92.8558 9C93.2558 9.22667 93.5658 9.54667 93.7858 9.96C94.0124 10.3733 94.1258 10.8467 94.1258 11.38ZM91.5058 9.46C91.0458 9.46 90.6591 9.6 90.3458 9.88C90.0391 10.16 89.8591 10.5267 89.8058 10.98H93.2058C93.1524 10.5333 92.9691 10.17 92.6558 9.89C92.3491 9.60333 91.9658 9.46 91.5058 9.46ZM100.459 6.58V14H99.5388V13.16C99.3255 13.4533 99.0555 13.6767 98.7288 13.83C98.4022 13.9833 98.0422 14.06 97.6488 14.06C97.1355 14.06 96.6755 13.9467 96.2688 13.72C95.8622 13.4933 95.5422 13.1767 95.3088 12.77C95.0822 12.3567 94.9688 11.8833 94.9688 11.35C94.9688 10.8167 95.0822 10.3467 95.3088 9.94C95.5422 9.53333 95.8622 9.21667 96.2688 8.99C96.6755 8.76333 97.1355 8.65 97.6488 8.65C98.0288 8.65 98.3788 8.72333 98.6988 8.87C99.0188 9.01 99.2855 9.22 99.4988 9.5V6.58H100.459ZM97.7288 13.22C98.0622 13.22 98.3655 13.1433 98.6388 12.99C98.9122 12.83 99.1255 12.61 99.2788 12.33C99.4322 12.0433 99.5088 11.7167 99.5088 11.35C99.5088 10.9833 99.4322 10.66 99.2788 10.38C99.1255 10.0933 98.9122 9.87333 98.6388 9.72C98.3655 9.56667 98.0622 9.49 97.7288 9.49C97.3888 9.49 97.0822 9.56667 96.8088 9.72C96.5422 9.87333 96.3288 10.0933 96.1688 10.38C96.0155 10.66 95.9388 10.9833 95.9388 11.35C95.9388 11.7167 96.0155 12.0433 96.1688 12.33C96.3288 12.61 96.5422 12.83 96.8088 12.99C97.0822 13.1433 97.3888 13.22 97.7288 13.22Z" fill="#3D3D3D"/>
</svg>
