<svg width="108" height="20" viewBox="0 0 108 20" fill="none" xmlns="http://www.w3.org/2000/svg">
<path d="M0.5 5.00003C0.5 2.51475 2.51472 0.500031 5 0.500031H51.5V19.5H5C2.51472 19.5 0.5 17.4853 0.5 15V5.00003Z" fill="white" stroke="#5A0FC8"/>
<path d="M34.2871 14.1661L35.2404 11.7632H37.993L36.6867 8.11815L38.3205 4.00003L43 16.3841H39.549L38.7494 14.1661H34.2871Z" fill="#3D3D3D"/>
<path d="M31.343 16.3841L36.3525 4.00005L33.0314 4.00007L29.6046 12.0029L27.1678 4.00008H24.615L21.9985 12.0029L20.1534 8.3562L18.4835 13.4839L20.1789 16.3841H23.4473L25.8117 9.20729L28.066 16.3841H31.343Z" fill="#5A0FC8"/>
<path d="M13.1525 12.133H15.1982C15.8178 12.133 16.3696 12.064 16.8535 11.9262L17.3826 10.3016L18.8611 5.76129C18.7485 5.58331 18.6198 5.41502 18.4753 5.25646C17.7161 4.4189 16.6054 4.00014 15.1431 4.00014H10V16.3842H13.1525V12.133ZM15.8602 6.84922C16.1568 7.14668 16.305 7.54474 16.305 8.04344C16.305 8.54596 16.1746 8.94451 15.9139 9.23909C15.628 9.56641 15.1016 9.73007 14.3347 9.73007H13.1525V6.403H14.3434C15.0581 6.403 15.5637 6.55174 15.8602 6.84922Z" fill="#3D3D3D"/>
<path d="M51.5 0.500031H103C105.485 0.500031 107.5 2.51475 107.5 5.00003V15C107.5 17.4853 105.485 19.5 103 19.5H51.5V0.500031Z" fill="#E3DFEA" stroke="#5A0FC8"/>
<path d="M61.18 14.08C60.48 14.08 59.8467 13.9267 59.28 13.62C58.72 13.3067 58.28 12.88 57.96 12.34C57.64 11.7934 57.48 11.18 57.48 10.5C57.48 9.82003 57.64 9.21003 57.96 8.67003C58.28 8.12336 58.7233 7.6967 59.29 7.39003C59.8567 7.0767 60.49 6.92003 61.19 6.92003C61.7367 6.92003 62.2367 7.01336 62.69 7.20003C63.1433 7.38003 63.53 7.65003 63.85 8.01003L63.2 8.64003C62.6733 8.0867 62.0167 7.81003 61.23 7.81003C60.71 7.81003 60.24 7.9267 59.82 8.16003C59.4 8.39336 59.07 8.7167 58.83 9.13003C58.5967 9.5367 58.48 9.99336 58.48 10.5C58.48 11.0067 58.5967 11.4667 58.83 11.88C59.07 12.2867 59.4 12.6067 59.82 12.84C60.24 13.0734 60.71 13.19 61.23 13.19C62.01 13.19 62.6667 12.91 63.2 12.35L63.85 12.98C63.53 13.34 63.14 13.6134 62.68 13.8C62.2267 13.9867 61.7267 14.08 61.18 14.08ZM69.702 11.38C69.702 11.4534 69.6953 11.55 69.682 11.67H65.382C65.442 12.1367 65.6453 12.5134 65.992 12.8C66.3453 13.08 66.782 13.22 67.302 13.22C67.9353 13.22 68.4453 13.0067 68.832 12.58L69.362 13.2C69.122 13.48 68.822 13.6934 68.462 13.84C68.1086 13.9867 67.712 14.06 67.272 14.06C66.712 14.06 66.2153 13.9467 65.782 13.72C65.3486 13.4867 65.012 13.1634 64.772 12.75C64.5386 12.3367 64.422 11.87 64.422 11.35C64.422 10.8367 64.5353 10.3734 64.762 9.96003C64.9953 9.5467 65.312 9.2267 65.712 9.00003C66.1186 8.7667 66.5753 8.65003 67.082 8.65003C67.5886 8.65003 68.0386 8.7667 68.432 9.00003C68.832 9.2267 69.142 9.5467 69.362 9.96003C69.5886 10.3734 69.702 10.8467 69.702 11.38ZM67.082 9.46003C66.622 9.46003 66.2353 9.60003 65.922 9.88003C65.6153 10.16 65.4353 10.5267 65.382 10.98H68.782C68.7286 10.5334 68.5453 10.17 68.232 9.89003C67.9253 9.60336 67.542 9.46003 67.082 9.46003ZM71.955 9.59003C72.1217 9.28336 72.3683 9.05003 72.695 8.89003C73.0217 8.73003 73.4183 8.65003 73.885 8.65003V9.58003C73.8317 9.57336 73.7583 9.57003 73.665 9.57003C73.145 9.57003 72.735 9.7267 72.435 10.04C72.1417 10.3467 71.995 10.7867 71.995 11.36V14H71.035V8.70003H71.955V9.59003ZM78.263 13.69C78.123 13.81 77.9497 13.9034 77.743 13.97C77.5364 14.03 77.323 14.06 77.103 14.06C76.5697 14.06 76.1564 13.9167 75.863 13.63C75.5697 13.3434 75.423 12.9334 75.423 12.4V9.49003H74.523V8.70003H75.423V7.54003H76.383V8.70003H77.903V9.49003H76.383V12.36C76.383 12.6467 76.453 12.8667 76.593 13.02C76.7397 13.1734 76.9464 13.25 77.213 13.25C77.5064 13.25 77.7564 13.1667 77.963 13L78.263 13.69ZM79.4237 8.70003H80.3837V14H79.4237V8.70003ZM79.9037 7.68003C79.717 7.68003 79.5603 7.62003 79.4337 7.50003C79.3137 7.38003 79.2537 7.23336 79.2537 7.06003C79.2537 6.8867 79.3137 6.74003 79.4337 6.62003C79.5603 6.49336 79.717 6.43003 79.9037 6.43003C80.0903 6.43003 80.2437 6.49003 80.3637 6.61003C80.4903 6.72336 80.5537 6.8667 80.5537 7.04003C80.5537 7.22003 80.4903 7.37336 80.3637 7.50003C80.2437 7.62003 80.0903 7.68003 79.9037 7.68003ZM84.1566 7.31003C83.5833 7.31003 83.2966 7.62003 83.2966 8.24003V8.70003H84.8366V9.49003H83.3166V14H82.3566V9.49003H81.4566V8.70003H82.3566V8.23003C82.3566 7.70336 82.51 7.2867 82.8166 6.98003C83.1233 6.67336 83.5533 6.52003 84.1066 6.52003C84.32 6.52003 84.52 6.5467 84.7066 6.60003C84.8933 6.65336 85.0533 6.73003 85.1866 6.83003L84.8966 7.56003C84.6766 7.39336 84.43 7.31003 84.1566 7.31003ZM86.5466 8.70003H87.5066V14H86.5466V8.70003ZM87.0266 7.68003C86.84 7.68003 86.6833 7.62003 86.5566 7.50003C86.4366 7.38003 86.3766 7.23336 86.3766 7.06003C86.3766 6.8867 86.4366 6.74003 86.5566 6.62003C86.6833 6.49336 86.84 6.43003 87.0266 6.43003C87.2133 6.43003 87.3666 6.49003 87.4866 6.61003C87.6133 6.72336 87.6766 6.8667 87.6766 7.04003C87.6766 7.22003 87.6133 7.37336 87.4866 7.50003C87.3666 7.62003 87.2133 7.68003 87.0266 7.68003ZM94.1258 11.38C94.1258 11.4534 94.1191 11.55 94.1058 11.67H89.8058C89.8658 12.1367 90.0691 12.5134 90.4158 12.8C90.7691 13.08 91.2058 13.22 91.7258 13.22C92.3591 13.22 92.8691 13.0067 93.2558 12.58L93.7858 13.2C93.5458 13.48 93.2458 13.6934 92.8858 13.84C92.5324 13.9867 92.1358 14.06 91.6958 14.06C91.1358 14.06 90.6391 13.9467 90.2058 13.72C89.7724 13.4867 89.4358 13.1634 89.1958 12.75C88.9624 12.3367 88.8458 11.87 88.8458 11.35C88.8458 10.8367 88.9591 10.3734 89.1858 9.96003C89.4191 9.5467 89.7358 9.2267 90.1358 9.00003C90.5424 8.7667 90.9991 8.65003 91.5058 8.65003C92.0124 8.65003 92.4624 8.7667 92.8558 9.00003C93.2558 9.2267 93.5658 9.5467 93.7858 9.96003C94.0124 10.3734 94.1258 10.8467 94.1258 11.38ZM91.5058 9.46003C91.0458 9.46003 90.6591 9.60003 90.3458 9.88003C90.0391 10.16 89.8591 10.5267 89.8058 10.98H93.2058C93.1524 10.5334 92.9691 10.17 92.6558 9.89003C92.3491 9.60336 91.9658 9.46003 91.5058 9.46003ZM100.459 6.58003V14H99.5388V13.16C99.3255 13.4534 99.0555 13.6767 98.7288 13.83C98.4022 13.9834 98.0422 14.06 97.6488 14.06C97.1355 14.06 96.6755 13.9467 96.2688 13.72C95.8622 13.4934 95.5422 13.1767 95.3088 12.77C95.0822 12.3567 94.9688 11.8834 94.9688 11.35C94.9688 10.8167 95.0822 10.3467 95.3088 9.94003C95.5422 9.53336 95.8622 9.2167 96.2688 8.99003C96.6755 8.76336 97.1355 8.65003 97.6488 8.65003C98.0288 8.65003 98.3788 8.72336 98.6988 8.87003C99.0188 9.01003 99.2855 9.22003 99.4988 9.50003V6.58003H100.459ZM97.7288 13.22C98.0622 13.22 98.3655 13.1434 98.6388 12.99C98.9122 12.83 99.1255 12.61 99.2788 12.33C99.4322 12.0434 99.5088 11.7167 99.5088 11.35C99.5088 10.9834 99.4322 10.66 99.2788 10.38C99.1255 10.0934 98.9122 9.87336 98.6388 9.72003C98.3655 9.5667 98.0622 9.49003 97.7288 9.49003C97.3888 9.49003 97.0822 9.5667 96.8088 9.72003C96.5422 9.87336 96.3288 10.0934 96.1688 10.38C96.0155 10.66 95.9388 10.9834 95.9388 11.35C95.9388 11.7167 96.0155 12.0434 96.1688 12.33C96.3288 12.61 96.5422 12.83 96.8088 12.99C97.0822 13.1434 97.3888 13.22 97.7288 13.22Z" fill="#5A0FC8"/>
</svg>
