<svg width="75" height="20" viewBox="0 0 75 20" fill="none" xmlns="http://www.w3.org/2000/svg">
<path d="M51 0H70C72.7614 0 75 2.23858 75 5V15C75 17.7614 72.7614 20 70 20H51V0Z" fill="#5A0FC8"/>
<circle cx="63" cy="10" r="5.5" fill="url(#paint0_linear)" stroke="white"/>
<rect x="61.0502" y="11.8712" width="6.85" height="1.15" transform="rotate(-45.3263 61.0502 11.8712)" fill="white"/>
<rect x="59.8572" y="9.00003" width="3" height="1.22153" transform="rotate(44.5671 59.8572 9.00003)" fill="white"/>
<path d="M5 0.5H51.5V19.5H5C2.51472 19.5 0.5 17.4853 0.5 15V5C0.5 2.51472 2.51472 0.5 5 0.5Z" fill="#5A0FC8" fill-opacity="0.4" stroke="#5A0FC8"/>
<path d="M33.8043 13.9965L34.7387 11.6337H37.4366L36.1562 8.04945L37.7575 4L42.344 16.1776H38.9616L38.1779 13.9965H33.8043Z" fill="white"/>
<path d="M30.9188 16.1776L35.8287 4.00003L32.5736 4.00005L29.2149 11.8695L26.8266 4.00006H24.3245L21.7601 11.8695L19.9516 8.28355L18.3149 13.3257L19.9766 16.1776H23.18L25.4974 9.12045L27.7069 16.1776H30.9188Z" fill="#5A0FC8"/>
<path d="M13.0898 11.9972H15.0948C15.7022 11.9972 16.243 11.9294 16.7173 11.7939L17.2358 10.1964L18.685 5.73179C18.5745 5.55677 18.4485 5.39129 18.3068 5.23538C17.5627 4.41178 16.4741 4 15.0409 4H10V16.1776H13.0898V11.9972ZM15.7437 6.80158C16.0344 7.09408 16.1797 7.4855 16.1797 7.97588C16.1797 8.47002 16.0519 8.86193 15.7963 9.1516C15.5161 9.47347 15.0002 9.63439 14.2485 9.63439H13.0898V6.36279H14.257C14.9576 6.36279 15.4531 6.50905 15.7437 6.80158Z" fill="white"/>
<defs>
<linearGradient id="paint0_linear" x1="63" y1="4.00003" x2="63" y2="16" gradientUnits="userSpaceOnUse">
<stop stop-color="#57BF65"/>
<stop offset="1" stop-color="#459B82"/>
</linearGradient>
</defs>
</svg>
