<svg width="75" height="20" viewBox="0 0 75 20" fill="none" xmlns="http://www.w3.org/2000/svg">
<path d="M51 3.05176e-05H70C72.7614 3.05176e-05 75 2.23861 75 5.00003V15C75 17.7615 72.7614 20 70 20H51V3.05176e-05Z" fill="#5A0FC8"/>
<circle cx="63" cy="10.0001" r="5.5" fill="url(#paint0_linear)" stroke="white"/>
<rect x="61.0502" y="11.8712" width="6.85" height="1.15" transform="rotate(-45.3263 61.0502 11.8712)" fill="white"/>
<rect x="59.8572" y="9.00006" width="3" height="1.22153" transform="rotate(44.5671 59.8572 9.00006)" fill="white"/>
<path d="M0.5 5.00003C0.5 2.51475 2.51472 0.500031 5 0.500031H51.5V19.5H5C2.51472 19.5 0.5 17.4853 0.5 15V5.00003Z" fill="#5A0FC8" fill-opacity="0.4" stroke="#5A0FC8"/>
<path d="M33.8043 13.9966L34.7387 11.6337H37.4366L36.1562 8.04948L37.7575 4.00003L42.344 16.1776H38.9616L38.1779 13.9966H33.8043Z" fill="white"/>
<path d="M30.9188 16.1777L35.8287 4.00006L32.5736 4.00008L29.2149 11.8695L26.8266 4.00009H24.3245L21.7601 11.8695L19.9516 8.28358L18.3149 13.3258L19.9766 16.1777H23.18L25.4974 9.12048L27.7069 16.1777H30.9188Z" fill="#5A0FC8"/>
<path d="M13.0898 11.9973H15.0948C15.7022 11.9973 16.243 11.9295 16.7173 11.7939L17.2358 10.1964L18.685 5.73182C18.5745 5.5568 18.4485 5.39132 18.3068 5.23541C17.5627 4.41181 16.4741 4.00003 15.0409 4.00003H10V16.1776H13.0898V11.9973ZM15.7437 6.80161C16.0344 7.09411 16.1797 7.48554 16.1797 7.97591C16.1797 8.47006 16.0519 8.86196 15.7963 9.15163C15.5161 9.4735 15.0002 9.63442 14.2485 9.63442H13.0898V6.36282H14.257C14.9576 6.36282 15.4531 6.50909 15.7437 6.80161Z" fill="white"/>
<defs>
<linearGradient id="paint0_linear" x1="63" y1="4.00006" x2="63" y2="16.0001" gradientUnits="userSpaceOnUse">
<stop stop-color="#57BF65"/>
<stop offset="1" stop-color="#459B82"/>
</linearGradient>
</defs>
</svg>
